<?xml version="1.0" standalone="no"?>
<!DOCTYPE svg PUBLIC "-//W3C//DTD SVG 20010904//EN"
 "http://www.w3.org/TR/2001/REC-SVG-20010904/DTD/svg10.dtd">
<svg version="1.0" xmlns="http://www.w3.org/2000/svg"
 width="512.000000pt" height="512.000000pt" viewBox="0 0 512.000000 512.000000"
 preserveAspectRatio="xMidYMid meet">
<metadata>
Created by potrace 1.14, written by Peter Selinger 2001-2017
</metadata>
<g transform="translate(0.000000,512.000000) scale(0.100000,-0.100000)"
fill="#000000" stroke="none">
<path d="M3385 4911 c-6 -10 11 -24 32 -27 7 -1 15 1 18 6 3 5 -3 7 -12 5 -25
-4 -38 6 -22 16 10 6 10 9 2 9 -6 0 -14 -4 -18 -9z"/>
<path d="M3270 4903 c0 -1 8 -7 18 -12 13 -7 19 -6 19 2 0 7 -9 13 -19 13 -10
0 -18 -1 -18 -3z"/>
<path d="M3325 4901 c-6 -11 9 -23 19 -14 9 9 7 23 -3 23 -6 0 -12 -4 -16 -9z"/>
<path d="M3356 4894 c-3 -8 -2 -13 2 -10 5 3 9 -1 9 -9 0 -8 -5 -11 -11 -7 -6
3 -19 8 -30 9 -16 3 -17 1 -5 -14 12 -16 12 -17 -1 -7 -27 19 -53 26 -47 11 5
-14 -36 -18 -49 -4 -5 4 -1 5 8 2 9 -4 19 -2 23 4 4 7 0 8 -11 4 -13 -5 -15
-3 -9 8 6 10 3 9 -11 -2 -10 -9 -27 -15 -37 -14 -12 2 -17 -1 -13 -10 3 -9 0
-12 -10 -8 -7 3 -14 10 -14 17 0 6 -5 3 -11 -7 -5 -9 -8 -21 -5 -26 4 -5 -3
-7 -13 -4 -13 3 -18 12 -16 25 3 12 1 18 -2 14 -12 -12 -12 -40 0 -56 10 -13
10 -13 -4 -3 -9 7 -19 9 -24 5 -4 -4 -5 4 -1 18 7 24 6 24 -9 -2 -18 -32 -28
-37 -18 -10 5 14 3 15 -8 5 -7 -7 -17 -13 -22 -13 -4 0 -5 6 -2 13 4 6 -1 3
-9 -7 -12 -15 -16 -16 -16 -5 -1 10 -3 9 -11 -3 -5 -10 -15 -18 -22 -18 -8 0
-7 4 3 10 10 6 6 9 -17 8 -24 -1 -30 -5 -25 -17 5 -14 4 -14 -10 -1 -12 12
-13 18 -4 30 9 13 9 13 -6 1 -14 -10 -15 -17 -7 -33 8 -15 8 -19 0 -14 -6 4
-11 2 -11 -5 0 -7 -6 -5 -13 6 -13 17 -15 17 -37 -5 -15 -15 -21 -17 -17 -8 3
9 0 19 -8 22 -9 3 -12 0 -8 -10 4 -10 0 -12 -13 -7 -13 5 -15 3 -10 -8 4 -8
-2 -3 -13 10 -12 13 -21 18 -21 12 0 -7 -5 -9 -12 -5 -7 4 -8 3 -4 -5 4 -6 13
-8 19 -5 7 4 8 3 4 -1 -10 -12 -37 -15 -37 -5 0 4 -8 11 -17 15 -15 5 -16 4
-5 -6 6 -7 12 -18 12 -24 0 -5 -5 -3 -10 5 -9 13 -11 13 -19 1 -10 -16 -45
-25 -35 -10 3 5 9 7 14 4 4 -3 10 2 14 10 7 18 2 19 -24 3 -16 -10 -22 -10
-28 -1 -5 8 -14 6 -32 -8 -15 -11 -18 -17 -7 -13 10 4 17 1 17 -6 0 -6 -4 -9
-9 -5 -5 3 -12 1 -15 -4 -4 -5 -14 -8 -24 -6 -9 1 -23 -2 -29 -7 -9 -7 -15 -5
-19 6 -3 9 -10 13 -15 10 -5 -3 -7 -10 -4 -15 3 -5 -1 -6 -9 -3 -9 3 -13 11
-9 17 4 6 1 7 -6 3 -7 -5 -10 -14 -7 -22 3 -8 1 -14 -4 -14 -6 0 -10 6 -10 14
0 8 -4 17 -9 20 -5 3 -8 -2 -7 -11 0 -9 -5 -18 -11 -20 -7 -3 -13 0 -13 7 0 6
6 8 13 4 6 -4 9 -3 4 1 -12 14 -48 14 -37 0 7 -8 5 -12 -5 -12 -14 0 -20 11
-15 32 1 5 -7 2 -17 -8 -16 -13 -22 -14 -33 -4 -12 10 -12 9 -1 -6 11 -13 17
-15 27 -6 9 7 14 8 14 1 0 -16 -23 -20 -44 -9 -26 13 -77 17 -70 6 3 -5 0 -9
-6 -9 -6 0 -9 -4 -6 -8 2 -4 0 -14 -5 -22 -7 -11 -8 -7 -5 13 3 15 0 27 -5 27
-5 0 -9 -9 -9 -19 0 -11 -4 -23 -10 -26 -5 -3 -10 -1 -10 5 0 6 -5 8 -12 3
-23 -14 -41 -12 -55 5 -13 15 -13 14 -9 -8 3 -14 3 -19 0 -12 -3 6 -11 9 -16
5 -7 -4 -9 2 -5 18 6 23 5 23 -8 5 -8 -10 -12 -22 -10 -27 3 -4 0 -11 -6 -15
-8 -4 -9 -3 -5 4 5 8 -1 12 -14 12 -14 0 -19 4 -14 13 5 8 2 7 -9 -2 -14 -11
-23 -12 -43 -2 -32 14 -31 14 -38 -5 -5 -13 -3 -14 7 -6 9 8 17 8 27 0 12 -8
12 -9 -2 -4 -10 3 -20 1 -23 -4 -4 -6 -16 -3 -29 6 -20 12 -26 12 -37 2 -28
-26 -53 -43 -45 -30 4 7 2 12 -4 12 -6 0 -9 4 -6 9 3 5 -1 11 -9 14 -10 4 -12
1 -8 -10 4 -11 2 -14 -5 -9 -7 4 -10 2 -6 -7 3 -8 -1 -14 -10 -14 -8 0 -12 5
-9 10 3 5 0 8 -8 5 -8 -3 -14 -10 -14 -16 0 -5 -3 -13 -7 -17 -3 -4 -5 5 -4
19 2 18 0 24 -8 18 -6 -4 -21 -7 -33 -6 -12 0 -20 -3 -17 -8 3 -4 10 -5 16 -2
7 4 8 2 4 -4 -5 -9 -13 -9 -27 -2 -11 7 -19 7 -19 1 0 -5 6 -11 13 -14 6 -2
-10 -3 -36 -2 -26 1 -50 -2 -53 -7 -3 -5 -11 -5 -17 -1 -7 4 -16 8 -22 9 -5 1
-22 4 -37 7 -15 3 -30 2 -33 -3 -3 -5 3 -7 14 -5 11 2 26 -4 33 -13 11 -15 11
-15 -2 -6 -8 5 -22 10 -30 9 -8 -1 -26 3 -40 8 -46 16 -59 17 -53 1 3 -8 12
-13 20 -10 8 3 24 -1 36 -10 20 -15 20 -16 2 -9 -29 11 -57 8 -68 -7 -6 -9 -7
-8 -3 5 3 11 4 23 1 27 -7 11 -35 1 -35 -12 0 -6 7 -4 17 3 15 13 15 12 2 -8
-17 -28 -21 -28 -44 -3 -16 17 -16 20 -2 20 9 0 19 4 22 10 4 6 -2 7 -17 1
-13 -5 -22 -15 -20 -24 1 -8 -6 -21 -15 -28 -16 -13 -17 -12 -4 4 9 12 10 17
2 17 -7 0 -10 4 -7 8 3 5 -1 9 -9 9 -11 0 -12 -4 -4 -13 7 -8 6 -14 -2 -20 -7
-4 -9 -3 -6 3 4 6 0 14 -9 17 -12 5 -14 1 -9 -17 7 -22 7 -22 -8 -2 -8 11 -13
24 -10 28 3 5 -4 4 -16 -2 -12 -7 -27 -9 -33 -5 -6 4 -8 3 -4 -4 4 -7 -6 -9
-29 -8 -29 3 -33 1 -24 -11 9 -11 8 -12 -5 -7 -9 3 -16 10 -16 15 0 5 -5 9
-11 9 -5 0 -8 -4 -5 -9 7 -11 -14 -20 -32 -14 -10 4 -10 8 0 21 11 13 11 14
-2 7 -8 -5 -21 -10 -28 -11 -8 -2 -17 -6 -20 -10 -4 -4 2 -4 13 -1 19 7 19 7
1 -8 -23 -17 -37 -11 -30 13 5 14 3 14 -10 -2 -12 -15 -16 -16 -16 -5 0 10
-10 15 -30 15 -26 0 -29 -3 -24 -20 3 -12 2 -16 -3 -11 -12 15 -47 19 -37 4 4
-8 3 -10 -4 -5 -6 4 -9 14 -6 24 5 16 5 16 -5 0 -11 -17 -54 -19 -69 -3 -4 4
-1 5 7 0 10 -5 12 -4 7 4 -4 6 -12 9 -17 5 -5 -3 -6 -10 -3 -16 5 -7 2 -9 -7
-6 -8 3 -23 9 -34 13 l-20 8 20 -16 20 -16 -20 -1 c-15 0 -17 -2 -7 -9 10 -6
8 -10 -8 -14 -14 -4 -19 -10 -14 -18 4 -8 3 -10 -5 -5 -13 8 -41 -10 -41 -27
0 -6 6 -3 13 8 11 14 16 15 22 5 5 -9 4 -11 -3 -6 -7 4 -12 3 -12 -3 0 -5 5
-11 11 -13 8 -3 6 -10 -5 -21 -10 -9 -12 -17 -6 -17 6 0 9 -4 6 -8 -3 -5 1 -9
9 -9 8 0 12 4 9 9 -9 14 7 9 24 -9 16 -16 16 -16 0 -10 -23 8 -23 -1 -1 -27
15 -17 15 -19 1 -8 -12 10 -18 10 -24 1 -4 -7 -3 -10 2 -7 5 3 14 0 21 -7 10
-11 10 -15 0 -18 -9 -4 -9 -6 1 -6 6 -1 12 -13 12 -27 0 -16 -4 -23 -12 -18
-7 4 -8 3 -4 -5 6 -9 11 -9 22 0 7 6 11 15 8 20 -3 5 2 6 10 3 13 -5 14 -8 1
-20 -8 -8 -13 -20 -11 -27 1 -7 1 -9 -1 -4 -10 17 -23 6 -14 -12 9 -16 8 -18
-9 -14 -12 3 -20 0 -20 -6 0 -7 4 -10 9 -6 5 3 13 0 17 -6 4 -8 3 -9 -4 -5 -7
4 -12 1 -12 -6 0 -8 -5 -6 -11 5 -8 14 -14 15 -24 7 -16 -13 -9 -43 8 -33 6 3
7 1 3 -5 -3 -6 -15 -9 -26 -7 -11 2 -23 -1 -26 -7 -4 -6 -3 -8 2 -5 6 3 16 2
24 -4 13 -7 13 -9 -1 -9 -8 0 -24 -7 -35 -16 -15 -12 -15 -15 -2 -10 9 2 19
-1 22 -9 3 -9 -1 -12 -12 -10 -9 1 -24 -4 -32 -13 -13 -14 -12 -15 3 -9 22 8
22 -2 -1 -20 -16 -14 -16 -14 0 -9 10 3 20 0 24 -6 4 -6 3 -8 -4 -4 -6 3 -13
2 -17 -3 -3 -6 -13 -8 -23 -5 -9 2 -3 -3 13 -11 l30 -15 -33 4 c-17 2 -30 1
-27 -4 3 -5 -1 -11 -7 -13 -10 -4 -10 -6 -1 -6 7 -1 11 -7 9 -13 -1 -7 -1 -10
1 -5 3 4 9 7 15 7 6 0 4 -8 -5 -18 -10 -10 -14 -22 -10 -26 5 -4 1 -6 -7 -4
-8 1 -14 -4 -15 -12 0 -9 -9 -15 -22 -14 -13 1 -20 -2 -18 -7 3 -4 1 -10 -4
-13 -14 -9 22 -74 39 -69 8 2 5 -2 -8 -8 -21 -11 -31 -30 -14 -28 19 3 33 -2
28 -10 -4 -5 4 -7 16 -4 22 4 22 4 -2 -12 l-25 -16 30 6 c21 4 26 3 16 -4 -8
-5 -16 -19 -18 -31 -3 -20 -2 -20 13 -6 8 9 18 16 21 16 4 0 3 -3 0 -7 -4 -3
1 -11 10 -18 9 -7 18 -20 19 -30 2 -13 0 -15 -9 -6 -19 19 -28 12 -10 -8 9
-11 24 -18 35 -16 10 2 16 0 13 -6 -4 -5 -10 -7 -14 -4 -5 2 -8 -7 -8 -20 0
-14 3 -25 8 -25 5 0 8 5 7 11 -2 6 2 13 8 16 7 2 11 -4 10 -14 0 -10 5 -17 12
-15 8 1 11 -2 8 -7 -4 -5 -2 -12 3 -15 5 -4 8 -18 5 -31 -4 -25 11 -36 18 -13
3 7 7 5 11 -6 4 -10 3 -15 -3 -11 -6 3 -10 -1 -10 -9 0 -8 5 -18 12 -22 7 -4
8 -3 4 4 -5 8 -2 10 8 6 13 -5 12 -9 -6 -24 -19 -15 -20 -20 -9 -34 7 -9 19
-16 25 -16 6 0 3 5 -7 11 -9 5 -17 15 -17 20 0 6 5 7 12 3 7 -5 8 -3 3 6 -5 9
-4 11 4 6 6 -4 9 -12 6 -17 -4 -5 1 -9 9 -9 9 0 15 -6 14 -12 -2 -7 3 -12 10
-10 8 1 11 -2 7 -8 -3 -6 -10 -8 -14 -6 -4 3 -8 -1 -8 -8 0 -8 9 -13 22 -12
20 3 23 -3 27 -51 1 -6 12 -16 26 -22 15 -7 22 -17 18 -26 -3 -8 -1 -17 5 -20
5 -4 6 -11 3 -17 -4 -6 -2 -8 4 -4 6 3 15 -2 21 -11 6 -10 11 -13 11 -6 0 7
-10 21 -22 33 -12 11 -16 20 -9 20 7 0 9 5 5 13 -4 7 -3 9 2 4 5 -5 9 -12 9
-15 1 -18 27 -52 36 -47 5 4 9 1 9 -5 0 -6 5 -8 12 -4 7 4 8 3 4 -4 -4 -6 -14
-9 -24 -6 -12 4 -11 2 3 -7 26 -16 35 -30 28 -44 -4 -5 -3 -7 2 -3 4 4 14 0
21 -10 12 -16 13 -15 23 8 7 19 10 20 10 7 1 -10 -4 -28 -10 -40 -9 -20 -9
-20 4 -4 17 20 31 23 24 3 -3 -8 -3 -17 1 -20 11 -11 11 -36 0 -36 -6 0 -3
-10 8 -22 10 -13 15 -20 10 -16 -5 4 -15 0 -23 -10 -12 -15 -13 -14 -2 8 11
22 10 23 -3 13 -8 -7 -18 -9 -23 -5 -4 4 -4 -3 -1 -15 8 -25 -2 -30 -24 -10
-12 10 -12 9 0 -7 16 -21 22 -49 9 -40 -5 3 -7 11 -3 17 3 7 -1 4 -9 -5 -11
-14 -16 -15 -27 -5 -9 9 -9 6 1 -12 11 -19 11 -25 2 -28 -7 -3 -13 -15 -13
-28 0 -13 -4 -27 -10 -30 -6 -4 -7 1 -3 12 6 15 5 16 -9 3 -10 -9 -13 -19 -7
-24 5 -6 9 -15 9 -20 0 -6 -4 -5 -9 3 -11 17 -34 4 -27 -15 3 -8 -1 -14 -10
-14 -8 0 -14 -6 -13 -12 1 -7 1 -22 0 -33 -1 -18 -2 -19 -12 -2 -5 9 -15 17
-22 17 -7 0 -6 -4 3 -10 13 -9 13 -10 0 -10 -12 0 -12 -2 -2 -9 10 -6 8 -10
-8 -14 -15 -4 -21 -11 -17 -21 4 -11 -1 -14 -21 -11 -15 2 -21 2 -14 -1 17 -8
15 -27 -3 -20 -8 3 -14 0 -12 -7 1 -7 -4 -11 -11 -9 -8 1 -11 -2 -7 -9 5 -8
10 -8 18 0 14 14 27 14 27 0 0 -5 -4 -8 -9 -4 -5 3 -13 0 -16 -6 -4 -5 -13 -8
-19 -6 -7 3 -19 1 -27 -5 -11 -8 -11 -9 3 -5 9 3 19 0 22 -8 3 -10 0 -12 -11
-8 -10 4 -14 2 -9 -5 3 -6 1 -14 -5 -18 -8 -4 -9 -3 -5 4 4 7 1 12 -9 12 -11
0 -15 -5 -12 -14 6 -15 -9 -16 -33 -2 -12 7 -13 6 -2 -5 17 -18 15 -32 -4 -25
-12 5 -15 2 -10 -9 3 -9 2 -13 -4 -10 -6 3 -10 1 -10 -6 0 -7 -7 -4 -16 7 -8
10 -13 14 -10 7 4 -6 2 -14 -4 -18 -5 -3 -10 -1 -10 4 0 6 -5 11 -11 11 -6 0
-9 -7 -6 -15 4 -8 2 -17 -4 -20 -5 -4 -8 -3 -7 2 2 4 -1 9 -6 10 -5 1 -13 7
-18 15 -7 9 -8 6 -5 -10 5 -23 5 -23 -13 -7 -14 12 -20 13 -26 4 -4 -7 -3 -10
3 -6 5 3 10 0 10 -8 0 -8 -4 -12 -8 -9 -4 2 -10 -2 -13 -8 -3 -7 -3 2 0 20 3
22 1 31 -6 27 -5 -3 -10 -14 -10 -25 0 -10 -7 -21 -16 -24 -8 -3 -13 -2 -10 2
2 4 1 14 -5 22 -7 12 -9 9 -9 -10 0 -18 -3 -21 -9 -12 -9 15 -17 15 -44 0 -15
-8 -16 -12 -5 -26 11 -13 11 -15 -3 -10 -18 7 -27 2 -49 -26 -9 -12 -10 -17
-2 -12 7 4 12 1 12 -9 0 -10 5 -13 12 -9 7 4 8 3 4 -5 -6 -9 -11 -9 -22 0 -10
8 -14 8 -14 0 0 -6 4 -11 9 -11 6 0 8 -8 6 -18 -3 -16 3 -19 30 -17 19 1 31
-3 28 -7 -3 -5 -12 -7 -22 -4 -12 5 -12 3 3 -9 10 -8 23 -12 28 -9 5 3 8 2 6
-3 -4 -19 38 -73 56 -71 11 2 21 -4 23 -12 4 -12 3 -12 -5 -2 -7 11 -10 11
-15 -3 -4 -9 -3 -13 2 -10 5 3 12 1 16 -5 4 -6 10 -8 15 -5 5 3 13 -3 19 -12
6 -10 11 -13 11 -7 0 5 -5 15 -11 21 -7 7 -6 12 3 16 8 3 14 -3 16 -14 4 -41
6 -46 19 -46 9 0 10 4 3 11 -5 5 -10 14 -10 20 0 5 9 -1 19 -13 14 -16 21 -18
24 -9 6 14 11 -16 7 -42 -1 -8 1 -12 6 -8 4 4 13 3 21 -3 7 -6 13 -8 13 -3 0
5 5 2 11 -6 10 -13 10 -13 6 1 -3 9 1 16 9 16 7 0 11 -4 8 -8 -10 -16 16 -48
33 -42 12 5 14 3 8 -7 -6 -9 -4 -11 6 -5 7 5 22 10 31 10 14 1 17 -4 13 -19
-4 -15 -1 -13 10 7 9 15 17 27 18 27 1 0 3 -12 4 -27 1 -18 -2 -22 -8 -12 -6
10 -8 8 -7 -7 2 -19 4 -20 27 -8 16 8 30 10 41 4 10 -5 20 -6 24 -3 3 3 6 1 6
-6 0 -8 -6 -11 -17 -6 -29 11 -35 11 -39 -3 -1 -7 0 -8 2 -3 4 6 14 6 30 -1
18 -9 27 -9 36 0 15 15 28 15 28 1 0 -5 -4 -8 -9 -5 -5 3 -11 -1 -14 -9 -4 -9
-1 -12 9 -8 7 3 14 1 14 -5 0 -15 28 -23 36 -10 4 6 3 8 -4 4 -6 -3 -13 -2
-16 3 -4 5 2 8 11 6 10 -1 17 -8 15 -15 -1 -6 3 -10 10 -7 7 2 12 10 10 16 -1
7 2 10 8 6 6 -3 8 -11 5 -16 -4 -5 -1 -17 5 -26 9 -13 10 -14 7 -2 -3 8 4 21
14 27 18 11 18 11 7 -7 -9 -15 -9 -23 1 -35 15 -18 31 -21 31 -5 0 5 -4 8 -9
4 -15 -9 -25 15 -12 28 9 9 11 8 6 -3 -4 -11 1 -16 16 -17 18 -2 19 0 7 15 -9
13 -7 12 10 -2 24 -21 29 -31 10 -21 -7 4 -5 0 5 -9 20 -15 51 -11 41 6 -4 6
3 5 15 -1 11 -7 21 -17 20 -24 0 -9 -2 -9 -6 1 -2 6 -9 12 -14 12 -16 0 -10
-15 12 -28 12 -8 18 -9 14 -3 -3 6 -1 11 5 11 7 0 9 9 5 23 -5 19 -5 20 5 4 6
-9 9 -26 5 -36 -3 -11 -1 -22 4 -26 6 -3 8 0 5 8 -7 19 12 32 22 16 5 -8 3 -9
-6 -4 -8 5 -11 4 -7 -3 4 -5 16 -8 27 -5 11 3 20 0 20 -6 0 -6 5 -11 11 -11 5
0 8 4 5 8 -3 5 1 9 10 9 10 0 12 -7 8 -21 -6 -20 -5 -20 14 2 11 13 22 18 24
12 2 -6 13 -12 25 -13 12 0 20 -4 17 -8 -2 -4 0 -10 6 -14 6 -4 8 -10 5 -15
-3 -5 3 -7 15 -5 11 2 22 0 25 -6 4 -5 14 -5 26 1 11 6 16 16 13 22 -4 7 -3 8
4 4 9 -5 9 -13 2 -26 -7 -13 -7 -21 2 -26 7 -4 8 -3 4 4 -3 6 2 16 13 21 29
16 38 13 15 -4 -10 -8 -15 -15 -10 -15 5 0 2 -8 -5 -17 -7 -10 -1 -7 14 6 22
20 29 22 40 11 8 -9 8 -11 0 -6 -6 3 -14 2 -18 -3 -3 -6 3 -8 13 -6 10 2 25
-1 33 -5 9 -6 20 -3 33 8 18 16 18 16 8 -4 -10 -19 -8 -20 19 -16 16 2 29 0
28 -4 -3 -18 1 -37 7 -31 4 3 16 2 27 -4 15 -9 18 -8 12 2 -6 9 -3 11 9 6 10
-4 20 -7 22 -7 3 0 2 -5 -2 -11 -3 -6 6 -3 22 7 28 18 29 18 14 -1 -14 -17
-13 -18 2 -12 9 3 22 -1 28 -8 7 -8 16 -12 21 -10 4 3 12 -3 18 -12 6 -10 11
-14 11 -10 0 4 10 3 21 -4 13 -7 19 -7 15 -1 -3 6 -2 13 4 17 5 3 10 1 10 -6
0 -7 11 -10 29 -7 17 2 28 1 25 -4 -3 -4 0 -16 6 -25 11 -16 11 -16 6 -1 -3
10 -1 20 4 23 9 5 14 -6 12 -25 0 -3 8 -7 19 -7 10 -1 19 2 19 8 0 5 -4 8 -9
6 -8 -2 -11 3 -11 19 0 4 7 0 16 -7 15 -12 16 -11 10 11 -6 23 -6 24 6 5 16
-25 43 -33 34 -10 -3 10 -2 13 5 10 5 -4 7 -16 4 -28 -4 -13 -3 -17 2 -11 4 6
18 14 31 18 12 4 20 11 17 16 -3 5 0 12 6 16 7 4 9 3 6 -3 -4 -6 4 -13 18 -15
17 -4 25 -1 25 9 0 8 4 12 10 8 5 -3 7 -13 4 -23 -5 -15 -5 -15 6 1 6 9 8 22
4 28 -3 6 3 5 15 -2 14 -10 17 -15 8 -21 -7 -5 -8 -8 -1 -8 18 0 24 13 13 27
-18 21 -1 15 20 -8 l20 -22 -5 29 c-2 16 -1 24 3 19 11 -14 48 -13 48 2 0 6 3
14 7 18 4 4 5 -8 3 -26 -3 -25 -2 -30 5 -19 5 8 10 23 10 33 0 10 4 16 10 12
5 -3 6 -13 3 -22 -5 -13 -3 -13 14 3 11 10 18 22 16 26 -5 9 25 4 34 -7 4 -4
3 -6 -2 -2 -6 3 -19 -1 -30 -9 -10 -8 -14 -14 -8 -14 7 0 15 5 18 10 4 6 11 8
16 5 5 -4 13 4 18 17 l10 23 1 -25 c1 -23 2 -23 9 -5 4 11 14 20 22 21 34 2
39 5 39 18 0 8 5 18 11 22 7 4 9 0 5 -13 -4 -13 -2 -20 8 -20 8 0 12 6 8 15
-3 9 -1 13 5 9 6 -4 25 -2 43 4 26 9 34 9 41 -2 6 -10 9 -10 9 -2 0 7 6 10 14
7 8 -3 17 0 21 5 3 6 10 9 14 7 4 -3 8 1 8 9 0 10 -4 12 -12 5 -7 -5 -16 -6
-20 -2 -5 4 -5 1 -1 -5 4 -7 2 -13 -4 -13 -7 0 -10 6 -7 13 2 6 9 11 15 10 5
-1 15 4 22 12 6 7 18 11 26 8 12 -4 12 -8 2 -22 -11 -14 -11 -14 3 -4 9 7 19
10 22 6 4 -3 7 -1 7 4 0 12 38 11 61 -1 8 -4 6 -1 -3 7 -18 14 -25 33 -10 23
13 -8 77 -18 71 -11 -4 3 -17 8 -29 10 -12 2 -25 7 -29 11 -3 4 2 4 11 1 9 -3
19 -1 22 6 3 9 5 8 5 -1 1 -7 5 -11 10 -8 5 3 14 -1 21 -9 7 -8 17 -15 23 -15
5 0 -2 11 -17 25 -27 25 -37 46 -11 25 14 -11 19 -7 16 13 -1 4 7 2 18 -5 10
-6 18 -16 17 -22 -2 -6 -1 -8 1 -3 3 4 8 5 13 2 4 -3 6 5 3 17 -4 19 -3 20 6
8 6 -8 11 -11 11 -7 0 4 10 2 23 -4 19 -11 20 -10 10 2 -10 12 -8 15 8 16 11
1 17 -2 14 -7 -3 -5 0 -12 6 -16 7 -4 9 -3 6 3 -10 16 18 23 34 10 11 -10 11
-9 0 6 -11 14 -11 20 -1 32 7 9 15 13 18 10 3 -3 12 1 20 8 13 9 14 9 8 0 -4
-7 -3 -13 3 -13 5 0 13 5 17 12 5 7 11 5 21 -7 7 -11 13 -14 13 -7 0 6 9 9 20
7 11 -2 18 0 15 6 -4 5 -1 9 5 9 6 0 9 4 5 9 -3 5 -1 12 4 16 6 3 8 -3 6 -15
-2 -11 1 -22 6 -26 5 -3 9 -2 8 3 -5 28 2 42 18 36 10 -4 14 -2 9 5 -3 6 -2
14 4 17 6 4 10 3 9 -2 -3 -19 2 -23 15 -11 8 7 12 16 10 20 -2 4 0 9 5 12 10
7 9 -20 -2 -30 -4 -4 -7 -12 -7 -18 0 -6 6 -1 14 10 11 15 24 19 60 18 25 -1
46 2 46 6 0 5 -16 7 -35 6 -20 -2 -38 0 -40 4 -3 5 6 7 20 5 14 -1 28 2 31 7
3 5 14 6 24 3 12 -4 22 0 28 11 8 15 10 15 16 -1 6 -17 8 -17 28 1 12 11 19
14 15 8 -7 -13 18 -12 46 0 14 7 15 11 5 24 -11 13 -10 14 7 5 15 -8 23 -8 32
2 6 7 10 16 7 19 -2 3 2 2 8 -4 15 -13 31 -13 23 0 -4 6 2 7 17 1 38 -14 41
-14 55 16 11 25 12 25 6 3 -5 -22 -4 -23 10 -12 9 8 20 11 25 8 5 -3 15 6 22
20 l14 25 14 -23 13 -23 -4 23 c-6 27 1 28 20 5 8 -10 12 -12 8 -5 -3 6 -1 12
6 12 8 0 8 5 -2 18 -13 16 -12 16 6 1 11 -9 26 -14 34 -11 9 3 11 0 6 -9 -6
-11 -5 -11 4 -3 7 6 13 21 14 33 1 19 3 19 16 6 13 -13 17 -11 33 13 10 15 18
22 18 15 0 -7 10 -17 21 -24 12 -6 19 -7 16 -1 -4 5 1 18 9 28 9 10 13 13 9 7
-3 -7 0 -13 7 -13 9 0 9 -3 -2 -10 -9 -6 -10 -10 -3 -10 6 0 15 5 18 10 4 6
10 8 15 5 5 -3 11 -1 15 4 3 6 -3 8 -15 6 -11 -2 -20 0 -20 6 0 5 10 7 23 5
14 -2 21 -10 20 -22 -1 -18 -1 -18 12 -1 7 10 23 20 36 22 22 5 41 24 34 35
-8 13 65 3 82 -11 15 -12 16 -12 8 1 -6 8 -10 20 -10 25 -1 6 -7 9 -14 7 -7
-1 -10 2 -5 9 5 9 12 6 25 -9 9 -12 23 -22 31 -22 8 0 9 3 2 8 -6 4 -14 16
-17 27 -7 19 -6 19 7 2 17 -22 27 -22 20 1 -5 14 -4 14 4 3 12 -17 45 -25 35
-9 -4 7 2 9 15 6 12 -4 25 -1 29 4 3 6 2 8 -3 5 -6 -3 -16 -1 -24 4 -11 7 -8
8 10 5 17 -2 31 3 43 18 15 18 16 19 10 2 -5 -14 -3 -17 7 -11 9 5 11 4 6 -4
-4 -6 -13 -8 -19 -5 -7 4 -9 4 -5 -1 4 -4 0 -14 -10 -22 -15 -13 -15 -13 5 -3
12 5 24 14 27 19 3 5 19 8 34 7 17 -1 29 3 29 10 0 7 -5 12 -10 11 -5 -1 -12
4 -14 11 -6 17 12 15 27 -3 9 -11 17 -12 31 -4 11 5 16 15 13 21 -4 7 -3 8 5
4 6 -4 8 -13 5 -19 -4 -7 -4 -9 1 -5 4 4 16 3 26 -3 15 -7 17 -6 13 6 -3 8
-11 12 -17 8 -5 -3 -7 -1 -4 4 7 12 54 5 63 -8 3 -5 15 -3 27 4 24 15 36 16
55 4 8 -6 12 -4 10 5 -2 7 3 12 10 10 6 -1 11 1 11 5 -4 27 3 45 15 40 9 -4
22 5 32 21 11 17 12 23 3 15 -11 -9 -14 -7 -14 12 0 16 4 20 11 14 12 -10 24
-2 24 15 0 6 -5 4 -10 -4 -8 -13 -10 -13 -10 2 0 9 6 19 13 21 9 4 9 6 -1 6
-7 1 -11 5 -8 9 3 5 -1 9 -9 9 -11 0 -12 -4 -4 -13 7 -8 6 -14 -2 -20 -7 -4
-9 -3 -5 4 3 6 2 13 -3 17 -5 3 -8 14 -6 25 2 11 -1 23 -7 26 -7 4 -8 2 -4 -4
4 -7 2 -12 -4 -12 -6 0 -10 8 -9 18 3 31 -1 42 -15 42 -8 0 -16 -4 -18 -9 -1
-5 -10 -2 -18 7 -13 14 -12 15 3 9 9 -3 19 -2 22 4 4 5 3 9 -2 8 -20 -3 -34 2
-28 11 3 6 -1 10 -9 10 -19 0 -21 21 -3 40 10 12 9 12 -5 1 -14 -10 -18 -9
-26 5 -5 9 -20 18 -33 20 -13 1 -26 3 -28 3 -2 1 2 8 9 16 10 13 11 18 1 28
-10 9 -11 8 -6 -8 7 -20 6 -20 -9 -1 -12 15 -16 16 -16 5 0 -12 -2 -12 -10 1
-8 13 -10 12 -10 -4 0 -15 -3 -16 -15 -6 -13 11 -14 10 -10 -2 3 -8 -1 -21
-10 -28 -13 -11 -14 -10 -9 5 6 14 4 16 -7 10 -11 -6 -12 -5 -1 6 6 7 12 18
12 23 0 6 -5 4 -10 -4 -8 -12 -10 -12 -10 -1 0 9 -9 12 -29 9 -17 -2 -28 -1
-25 4 3 4 11 8 19 8 8 0 17 4 20 10 3 6 -1 7 -12 4 -17 -5 -17 -5 0 6 19 13
41 4 31 -12 -4 -7 -2 -8 5 -4 6 4 9 12 6 17 -4 5 -1 9 5 9 6 0 8 4 5 10 -4 6
1 7 11 3 11 -4 15 -3 10 5 -3 6 -2 14 4 17 6 4 10 3 9 -2 -3 -20 2 -25 16 -13
8 7 12 17 8 24 -4 7 -1 7 8 -1 12 -10 20 -9 40 4 23 16 23 16 10 0 -12 -15
-12 -17 3 -11 9 3 16 1 16 -5 0 -6 5 -11 11 -11 8 0 7 5 -1 15 -12 14 -10 15
14 11 15 -3 24 -1 21 5 -4 5 -10 7 -15 4 -5 -3 -11 -1 -14 4 -4 5 2 8 11 6 10
-1 24 3 32 9 11 9 13 7 7 -12 -5 -14 -3 -22 4 -22 6 0 9 3 7 8 -3 4 -1 17 4
29 6 18 14 21 44 18 31 -3 34 -1 19 9 -12 9 -14 15 -5 20 6 4 8 12 5 18 -4 7
-2 8 4 4 7 -4 12 -2 12 5 0 7 3 9 7 6 3 -4 -2 -17 -13 -29 -17 -21 -17 -21 8
1 20 17 25 28 18 36 -8 9 -4 12 15 10 22 -3 24 -1 14 17 -6 11 -8 22 -5 25 3
4 1 11 -4 18 -7 8 -5 12 5 12 8 0 11 -5 8 -10 -4 -6 -1 -7 6 -3 15 10 -18 47
-34 38 -6 -3 -6 -1 -2 4 5 5 13 9 18 9 5 0 9 3 9 8 0 4 0 12 0 17 0 6 -7 10
-15 10 -8 0 -15 5 -15 11 0 5 5 7 12 3 7 -4 8 -3 4 5 -4 6 -12 9 -17 6 -8 -6
-13 8 -10 27 0 4 -7 4 -16 1 -13 -5 -15 -1 -11 20 4 21 2 25 -7 17 -9 -8 -14
-6 -19 6 -9 24 -7 36 6 28 7 -4 8 -3 4 5 -6 9 -11 9 -24 -1 -14 -11 -15 -10
-9 6 5 13 3 17 -6 13 -8 -3 -20 -1 -28 5 -11 8 -10 9 4 4 9 -3 17 -1 17 5 0 6
4 8 9 4 5 -3 12 -1 16 4 3 6 -3 8 -13 6 -10 -2 -25 1 -33 6 -12 7 -12 9 1 9 9
0 4 7 -12 18 -22 15 -25 21 -15 31 10 11 8 11 -13 1 -24 -13 -24 -12 -10 5 14
17 13 18 -2 12 -9 -3 -22 1 -28 9 -8 9 -9 14 -2 14 6 0 13 -6 15 -12 3 -8 6
-6 6 5 1 9 -3 18 -9 18 -5 1 -15 2 -22 3 -6 0 -12 10 -14 20 -3 22 -24 37 -37
29 -5 -3 -5 2 0 12 14 24 5 53 -18 60 -11 4 -17 10 -14 15 3 5 0 12 -6 16 -7
4 -9 3 -6 -3 4 -6 0 -13 -8 -16 -10 -4 -12 -1 -8 10 4 10 2 14 -4 10 -7 -5
-10 4 -9 23 1 16 0 27 -3 25 -2 -3 -11 1 -20 8 -14 11 -14 10 -2 -6 12 -15 12
-17 -3 -11 -9 3 -15 14 -14 23 2 9 -3 15 -10 13 -8 -1 -11 2 -7 8 3 5 2 10 -3
10 -10 0 -37 50 -34 63 1 4 -5 10 -13 13 -8 4 -15 14 -15 23 0 14 2 14 11 1 7
-10 9 -11 7 -2 -2 8 -6 12 -8 11 -12 -6 -49 23 -44 35 4 9 -2 13 -20 11 -15
-2 -24 0 -21 5 8 13 -6 41 -17 34 -6 -4 -5 4 2 16 11 20 10 21 -12 15 -21 -7
-22 -7 -8 10 8 11 10 16 4 12 -6 -3 -16 3 -24 13 -8 10 -18 16 -23 13 -6 -3
-7 -1 -3 6 6 9 11 9 22 0 12 -10 13 -9 8 5 -5 12 -14 16 -29 14 -19 -4 -22 -1
-20 24 2 20 -3 32 -17 39 -12 7 -18 7 -14 1 3 -5 -1 -12 -9 -15 -10 -4 -12 -1
-8 11 4 9 9 19 13 22 3 3 -2 13 -12 23 -10 9 -18 13 -18 7 0 -5 -4 -10 -10
-10 -5 0 -10 8 -10 19 0 10 -7 24 -15 31 -8 7 -12 17 -9 22 5 7 1 7 -11 0 -25
-13 -54 13 -36 31 10 9 12 9 9 -2 -2 -7 4 -16 12 -18 12 -4 12 -3 2 5 -8 5
-13 13 -13 17 1 8 -17 15 -46 17 -7 1 -10 5 -7 10 3 5 10 5 16 2 7 -4 8 -2 4
5 -4 6 -16 9 -27 6 -11 -4 -19 -2 -19 5 0 6 5 8 10 5 6 -3 10 -1 10 4 0 6 -4
11 -10 11 -5 0 -10 5 -10 11 0 5 5 7 10 4 6 -3 10 -2 10 4 0 5 -9 9 -19 8 -12
-1 -17 -7 -14 -17 4 -13 3 -13 -5 0 -6 8 -8 18 -6 22 3 4 1 8 -5 8 -6 0 -8 7
-4 16 5 14 3 15 -15 5 -18 -10 -21 -9 -16 4 4 8 11 15 17 15 6 0 1 7 -11 16
-12 8 -19 20 -16 26 4 7 2 8 -5 4 -8 -6 -9 -12 -2 -20 8 -9 7 -13 -3 -13 -9 0
-13 9 -11 24 2 20 0 21 -13 11 -13 -11 -14 -10 -3 9 10 20 9 22 -5 16 -12 -4
-15 -3 -10 5 4 7 3 12 -3 12 -5 0 -12 -6 -15 -12 -3 -7 -3 -2 0 11 4 16 2 21
-5 17 -7 -5 -9 -1 -5 8 4 11 0 16 -11 16 -10 0 -13 4 -9 13 5 7 0 6 -11 -3
-10 -8 -16 -10 -12 -3 4 7 0 17 -10 23 -16 9 -16 10 -1 8 9 -2 17 1 17 7 1 5
-5 10 -12 11 -40 3 -40 4 -21 25 19 22 19 22 -3 10 -22 -11 -43 2 -23 14 8 5
8 11 0 20 -8 10 -8 14 2 17 8 3 6 7 -6 11 -11 5 -15 3 -10 -5 5 -8 1 -9 -12
-5 -18 7 -18 7 0 -7 18 -14 18 -15 -2 -13 -20 1 -23 12 -8 36 7 11 5 13 -10 8
-18 -7 -18 -6 -1 7 16 12 16 14 2 20 -9 3 -13 2 -10 -4 3 -6 1 -10 -4 -10 -6
0 -11 7 -11 15 0 8 5 15 12 15 6 0 8 3 5 6 -4 4 -13 1 -21 -5 -12 -10 -16 -8
-21 7 -3 11 -5 24 -4 28 3 20 -2 32 -17 38 -8 3 -13 2 -10 -2 3 -5 -1 -9 -8
-9 -7 0 -13 7 -12 16 1 9 -5 15 -12 13 -8 -1 -11 2 -7 8 5 8 11 8 20 0 9 -8
15 -8 20 0 4 6 1 9 -6 8 -7 -2 -14 3 -15 10 -1 6 -3 15 -4 20 -1 4 -2 11 0 17
1 5 -8 1 -20 -10 -17 -15 -21 -16 -20 -5 5 32 0 61 -10 55 -5 -3 -10 -1 -10 5
0 6 -5 8 -12 4 -7 -4 -8 -3 -4 5 4 6 12 8 18 5 7 -4 8 -2 4 4 -4 7 -13 12 -21
12 -7 0 -15 5 -17 11 -2 5 -11 11 -21 13 -10 1 -26 10 -37 18 -16 14 -19 15
-24 2z m-143 -51 c-3 -7 -6 -13 -8 -13 -2 0 -5 6 -8 13 -3 8 1 14 8 14 7 0 11
-6 8 -14z m312 -93 c3 -5 1 -10 -4 -10 -6 0 -11 5 -11 10 0 6 2 10 4 10 3 0 8
-4 11 -10z m-911 -9 c3 -4 -1 -17 -10 -27 -14 -18 -15 -18 -5 3 8 16 8 23 -2
26 -9 4 -9 6 0 6 6 1 14 -3 17 -8z m-336 -50 c2 -1 0 -6 -3 -11 -5 -8 -12 -7
-23 2 -14 11 -15 10 -8 -7 5 -15 4 -17 -5 -8 -21 21 -1 34 39 24z m1297 -31
c-3 -5 -13 -6 -21 -3 -12 4 -13 8 -3 14 15 9 32 2 24 -11z m-1685 -20 c0 -5
-5 -10 -11 -10 -5 0 -7 5 -4 10 3 6 8 10 11 10 2 0 4 -4 4 -10z m20 -20 c0 -5
-5 -10 -11 -10 -5 0 -7 5 -4 10 3 6 8 10 11 10 2 0 4 -4 4 -10z m-708 -57 c-6
-2 -10 -9 -7 -14 4 -5 -1 -6 -10 -2 -13 5 -14 7 -3 14 7 5 18 8 23 8 6 0 4 -3
-3 -6z m-268 -11 c3 -5 -1 -9 -9 -9 -8 0 -15 4 -15 9 0 4 4 8 9 8 6 0 12 -4
15 -8z m221 -2 c3 -6 -1 -7 -9 -4 -18 7 -21 14 -7 14 6 0 13 -4 16 -10z m-380
-30 c-3 -5 -12 -10 -18 -10 -7 0 -6 4 3 10 19 12 23 12 15 0z m-65 -94 c0 -2
-7 -7 -16 -10 -8 -3 -12 -2 -9 4 6 10 25 14 25 6z m100 -325 c0 -5 -6 -12 -12
-14 -8 -3 -6 -6 5 -6 9 -1 17 5 18 12 0 7 3 6 6 -3 4 -8 12 -21 20 -29 8 -7
12 -20 9 -28 -4 -9 0 -13 11 -11 12 2 18 -4 18 -17 0 -11 4 -26 8 -32 6 -9 3
-11 -7 -7 -9 3 -16 1 -16 -6 0 -6 4 -9 9 -6 5 3 20 -3 32 -15 13 -11 19 -18
12 -15 -6 4 -14 2 -17 -3 -4 -5 5 -8 19 -6 20 2 23 0 14 -11 -11 -13 -2 -19
24 -15 4 0 7 -6 7 -15 0 -8 4 -13 8 -10 12 7 14 -45 2 -59 -7 -8 -5 -12 5 -12
8 0 12 4 9 9 -3 4 0 8 5 8 6 0 11 -7 11 -16 0 -9 5 -12 13 -8 7 5 6 0 -3 -11
-9 -12 -10 -16 -2 -11 9 6 11 1 8 -18 -3 -14 -7 -30 -11 -36 -3 -5 0 -7 9 -4
8 3 13 14 11 25 -2 10 0 21 4 23 10 7 8 -35 -3 -52 -5 -8 -3 -12 6 -10 8 2 12
-4 10 -14 -2 -13 4 -18 20 -19 17 -1 18 -3 6 -6 -10 -2 -18 -9 -18 -15 0 -5 7
-7 16 -4 8 3 13 2 9 -3 -3 -5 9 -20 26 -32 26 -18 29 -24 18 -33 -8 -6 -15
-17 -17 -25 -3 -12 -1 -12 14 0 15 13 16 12 9 -11 -7 -24 -7 -24 12 -7 16 14
20 14 20 2 0 -8 -4 -12 -9 -9 -4 3 -8 1 -8 -4 0 -10 29 -26 43 -24 12 3 8 -5
-10 -19 -14 -12 -16 -12 -8 0 5 10 4 12 -4 7 -15 -10 -3 -29 15 -22 8 3 18 -4
24 -17 11 -21 11 -21 -4 -3 -20 25 -20 17 -2 -20 8 -15 13 -31 11 -34 -2 -4 2
-7 10 -7 11 0 12 4 4 13 -7 9 -7 18 1 31 9 16 10 15 4 -6 -3 -14 -2 -21 3 -18
13 8 13 -26 1 -34 -5 -3 -2 -9 7 -12 9 -4 13 -3 10 2 -3 5 -1 13 5 16 6 4 10
3 9 -2 -1 -4 -1 -15 0 -23 1 -13 2 -13 11 0 7 11 9 4 6 -23 -1 -21 2 -41 7
-44 6 -3 7 -1 3 5 -4 7 -2 12 3 12 6 0 11 -4 11 -10 0 -5 7 -10 15 -10 8 0 16
-4 16 -10 1 -5 3 -14 4 -20 1 -5 3 -15 4 -21 0 -5 6 -7 11 -4 6 3 10 -3 10
-15 0 -13 -4 -19 -12 -14 -7 4 -8 3 -4 -5 6 -9 11 -9 23 1 13 10 14 8 11 -12
-2 -20 1 -24 16 -22 17 3 18 1 7 -11 -8 -11 -9 -17 -1 -22 6 -3 8 -11 4 -16
-3 -5 0 -8 7 -7 8 2 13 -6 14 -19 0 -12 3 -25 7 -29 4 -3 6 3 3 14 -2 12 1 24
6 28 5 3 8 0 7 -7 -2 -7 3 -13 11 -14 8 0 15 -10 16 -22 1 -12 -2 -20 -7 -17
-5 4 -7 13 -3 23 5 13 4 14 -6 4 -10 -10 -10 -16 -2 -24 6 -6 10 -17 9 -23 -2
-6 -1 -8 1 -3 3 4 10 7 16 7 5 0 7 -3 4 -6 -11 -12 14 -46 29 -40 8 3 13 2 10
-3 -3 -5 4 -20 15 -35 11 -14 18 -30 14 -35 -3 -6 3 -15 12 -21 16 -10 16 -11
1 -6 -10 3 -20 1 -23 -5 -4 -5 -3 -9 2 -8 4 1 17 1 28 0 17 -1 18 -3 5 -11
-14 -9 -7 -15 14 -11 5 1 4 -4 -2 -11 -10 -13 -11 -44 -1 -50 2 -2 3 -1 2 1
-2 2 3 11 10 19 10 13 9 14 -3 7 -8 -4 -12 -5 -8 -1 8 10 23 8 23 -1 0 -17 17
-33 27 -27 7 4 8 2 4 -5 -6 -8 -12 -9 -20 -2 -9 8 -13 7 -13 -4 0 -8 4 -12 8
-9 13 8 21 -16 10 -29 -7 -9 -5 -13 8 -13 12 0 17 6 14 16 -4 13 -4 13 6 0 6
-8 8 -23 5 -32 -6 -20 6 -24 22 -8 7 7 11 6 11 -5 0 -8 -5 -15 -11 -15 -6 0
-3 -5 7 -11 9 -6 14 -15 11 -21 -4 -7 -2 -8 5 -4 6 4 9 12 6 17 -4 5 -1 9 6 9
6 0 9 -8 6 -20 -3 -12 4 -29 18 -44 13 -14 22 -26 21 -28 0 -2 1 -2 3 -1 6 4
31 -18 31 -28 0 -5 -5 -9 -11 -9 -5 0 -7 5 -3 12 4 7 3 8 -5 4 -6 -4 -9 -12
-6 -17 7 -11 32 -12 38 -1 2 4 2 2 1 -5 -2 -7 2 -15 8 -19 7 -5 5 -12 -8 -22
-18 -14 -18 -14 2 -8 14 4 24 2 27 -8 4 -10 1 -13 -9 -9 -7 3 -14 0 -14 -6 0
-6 9 -11 21 -11 15 0 19 -4 15 -15 -21 -51 -21 -51 -4 -37 14 11 16 10 11 -8
-3 -11 -12 -19 -21 -18 -8 2 -16 -5 -17 -15 -2 -9 1 -15 6 -11 5 3 9 0 9 -5 0
-6 7 -11 16 -11 9 0 12 5 8 13 -4 7 -3 9 2 4 5 -5 9 -14 9 -20 1 -7 7 -11 15
-9 11 3 11 1 0 -13 -12 -14 -12 -20 0 -38 12 -20 12 -21 -3 -9 -22 19 -70 23
-63 6 3 -8 0 -11 -9 -8 -8 3 -13 10 -12 16 3 13 -31 19 -39 7 -11 -18 -32 11
-26 34 5 20 4 21 -13 7 -18 -14 -18 -14 -2 11 16 24 16 27 2 39 -13 11 -14 10
-9 -4 3 -9 1 -16 -5 -16 -6 0 -10 3 -10 8 1 4 1 14 0 22 -1 13 -2 13 -11 0 -5
-8 -10 -10 -10 -4 0 5 6 16 13 23 10 11 7 12 -13 7 -14 -3 -19 -3 -12 0 6 3
12 14 12 25 0 17 -11 24 -33 20 -5 -1 -6 3 -2 9 3 6 11 7 17 4 7 -5 8 -2 4 5
-5 7 -15 10 -23 7 -8 -3 -12 -2 -9 3 7 11 -33 63 -43 57 -4 -3 -8 1 -8 9 0 8
4 12 8 9 4 -2 10 0 14 6 3 5 -1 10 -9 10 -14 0 -18 6 -15 26 1 12 -26 24 -46
19 -11 -3 -14 -2 -7 1 10 5 10 9 1 20 -7 8 -9 17 -5 21 3 3 6 1 6 -5 0 -6 10
-16 23 -22 21 -10 21 -10 3 4 -10 8 -15 20 -10 27 4 8 3 10 -4 5 -7 -4 -12 -3
-12 3 0 6 -7 8 -15 5 -8 -4 -15 -1 -15 6 0 6 -5 8 -12 4 -7 -4 -8 -3 -4 5 4 6
0 14 -9 17 -14 6 -14 8 2 19 10 8 15 17 10 21 -4 4 -7 2 -7 -4 0 -7 -5 -12
-11 -12 -5 0 -8 4 -5 9 3 5 0 14 -8 20 -11 9 -15 9 -20 -1 -3 -7 -3 -2 0 11 4
16 2 21 -5 17 -7 -5 -9 -1 -5 9 4 10 1 14 -7 12 -8 -2 -11 -2 -6 0 4 3 7 11 7
18 0 7 3 15 8 18 4 2 2 3 -4 1 -17 -4 -33 16 -27 35 4 14 3 14 -6 1 -7 -10 -6
-19 5 -31 12 -14 12 -16 -1 -16 -8 0 -13 2 -10 5 2 2 -7 20 -22 38 -14 19 -21
34 -16 34 6 0 14 -10 20 -22 9 -20 10 -19 10 10 0 21 -3 28 -9 20 -6 -10 -8
-10 -9 2 -1 8 -1 19 0 23 1 5 -3 6 -9 2 -5 -3 -10 -1 -10 4 0 6 -5 11 -12 11
-6 0 -4 -7 5 -18 14 -15 15 -19 2 -19 -8 0 -12 4 -9 9 3 4 -1 10 -8 13 -8 3
-14 16 -15 28 0 12 1 16 4 10 3 -7 10 -13 16 -13 6 0 -2 13 -17 29 -16 16 -25
34 -22 40 5 7 1 8 -9 5 -14 -6 -13 -10 6 -30 30 -32 17 -31 -15 1 -15 14 -21
27 -14 31 13 8 -7 29 -30 29 -10 0 -16 7 -14 17 1 9 -3 20 -9 24 -7 4 -9 3 -5
-4 3 -6 2 -13 -3 -16 -6 -4 -8 7 -6 26 3 21 1 28 -4 19 -7 -11 -10 -9 -16 8
-3 11 -11 21 -18 21 -8 0 -8 -3 1 -12 15 -15 15 -28 1 -28 -5 0 -8 4 -4 9 3 5
1 12 -4 16 -6 3 -7 13 -4 22 5 13 2 15 -16 10 -13 -3 -20 -3 -17 0 3 3 -3 18
-14 33 -11 15 -17 29 -15 32 3 3 -1 5 -9 5 -12 0 -12 -4 1 -26 12 -21 12 -22
1 -9 -8 10 -17 16 -20 13 -9 -10 -5 30 5 43 15 19 -4 14 -20 -5 -13 -17 -14
-16 -10 5 3 12 1 20 -3 17 -5 -3 -11 -1 -15 5 -3 5 -12 10 -18 10 -7 0 -3 -7
7 -15 11 -8 16 -15 10 -15 -13 1 -50 30 -37 30 7 0 11 8 10 18 -1 13 -8 17
-29 16 -25 -2 -27 0 -16 19 8 16 8 22 -1 25 -6 2 -9 8 -6 13 4 5 0 6 -8 4 -7
-3 -19 5 -27 20 -10 19 -16 22 -23 13 -6 -9 -7 -8 -4 4 3 9 -1 22 -8 28 -8 7
-13 16 -10 20 8 13 -17 60 -32 60 -7 0 -13 4 -13 10 0 5 6 8 13 6 6 -1 9 -1 4
1 -4 3 -4 10 0 16 4 6 0 8 -10 4 -9 -3 -19 -1 -23 5 -4 7 -3 8 4 4 7 -4 12 -1
12 9 0 9 -4 13 -10 10 -5 -3 -10 0 -10 7 0 10 -3 9 -11 -2 -8 -12 -9 -10 -4 8
4 15 2 22 -5 20 -7 -2 -14 5 -15 15 -2 9 1 15 6 11 5 -3 6 -10 3 -16 -4 -7 -2
-8 4 -4 14 9 4 36 -14 36 -7 0 -11 6 -8 14 3 8 0 17 -5 21 -6 3 -9 11 -5 16 3
5 2 9 -3 8 -25 -4 -34 2 -28 21 4 12 2 20 -5 20 -6 0 -8 5 -4 11 5 9 -1 10
-22 5 -18 -4 -24 -3 -16 2 15 10 15 21 -1 40 -8 10 -7 12 2 10 19 -5 46 38 30
48 -8 4 -9 3 -5 -4 4 -7 2 -12 -4 -12 -6 0 -9 -4 -6 -8 3 -5 -1 -9 -9 -9 -11
0 -10 5 2 24 8 12 19 20 25 17 12 -7 37 13 34 29 -1 7 -6 18 -10 26 -7 10 -6
12 4 6 10 -6 12 -4 7 8 -8 20 10 32 27 18 9 -8 13 -4 13 17 3 60 18 112 34
112 5 0 9 -4 9 -9z m3250 -43 c0 -5 -7 -3 -15 6 -8 8 -15 18 -15 22 0 3 7 1
15 -6 8 -7 15 -17 15 -22z m45 -38 c3 -5 1 -10 -4 -10 -6 0 -11 5 -11 10 0 6
2 10 4 10 3 0 8 -4 11 -10z m-3345 -20 c0 -5 -2 -10 -4 -10 -3 0 -8 5 -11 10
-3 6 -1 10 4 10 6 0 11 -4 11 -10z m3386 -35 c-1 -8 -5 -17 -8 -21 -5 -4 -4
16 1 34 3 9 9 -1 7 -13z m-3430 -40 c-1 -8 -6 -18 -11 -22 -4 -4 -5 -2 -1 5 4
7 2 12 -6 12 -9 0 -9 3 2 10 19 12 19 13 16 -5z m-189 -80 c0 -8 -4 -15 -8
-15 -11 0 -20 16 -12 24 11 11 20 7 20 -9z m503 -25 c0 -5 -2 -10 -4 -10 -3 0
-8 5 -11 10 -3 6 -1 10 4 10 6 0 11 -4 11 -10z m-470 -60 c8 -5 11 -10 5 -10
-5 0 -17 5 -25 10 -8 5 -10 10 -5 10 6 0 17 -5 25 -10z m175 -60 c3 -6 -1 -7
-9 -4 -18 7 -21 14 -7 14 6 0 13 -4 16 -10z m345 -22 c0 -19 -16 -5 -17 14 -2
18 0 20 7 8 5 -8 10 -18 10 -22z m3440 -197 c7 -14 7 -22 -2 -27 -6 -4 -8 -3
-4 4 3 6 -1 18 -10 26 -8 9 -11 16 -5 16 6 0 15 -9 21 -19z m-3590 -121 c0 -5
-2 -10 -4 -10 -3 0 -8 5 -11 10 -3 6 -1 10 4 10 6 0 11 -4 11 -10z m39 -197
c-3 -19 2 -34 9 -29 4 2 9 -5 9 -17 2 -18 0 -17 -17 8 -10 16 -17 32 -14 37 6
10 14 10 13 1z m461 -44 c0 -5 5 -7 12 -3 7 4 8 3 4 -5 -6 -9 -11 -9 -22 0
-17 14 -18 19 -4 19 6 0 10 -5 10 -11z m3340 1 c0 -6 12 -23 28 -37 20 -20 22
-23 6 -15 -12 6 -25 8 -29 4 -5 -4 -5 -2 -2 5 4 6 0 18 -8 26 -17 18 -19 27
-5 27 6 0 10 -5 10 -10z m-3707 -57 c-9 -3 -10 -10 -3 -23 7 -13 7 -21 -2 -26
-7 -4 -8 -3 -4 4 4 7 2 12 -5 12 -7 0 -9 3 -6 7 4 3 3 11 -3 17 -6 8 -2 12 13
13 12 0 16 -1 10 -4z m191 -21 c3 -5 -1 -9 -9 -9 -8 0 -12 4 -9 9 3 4 7 8 9 8
2 0 6 -4 9 -8z m271 -51 c3 -5 2 -12 -3 -15 -5 -3 -9 1 -9 9 0 17 3 19 12 6z
m-339 -94 c-1 -34 3 -43 16 -43 12 0 14 4 7 12 -7 8 -6 14 1 19 6 4 10 3 9 -2
-4 -20 2 -24 19 -12 14 11 15 11 5 -1 -7 -8 -13 -22 -13 -33 0 -14 5 -17 23
-12 20 5 20 5 -3 -10 -24 -15 -24 -16 -2 -10 20 6 22 4 18 -19 -3 -18 -1 -23
10 -19 17 6 19 -13 2 -21 -7 -3 -4 -4 8 -1 13 3 27 -2 39 -15 10 -11 15 -20
10 -20 -4 0 -13 7 -19 15 -8 11 -15 12 -26 4 -12 -9 -12 -10 4 -5 15 5 17 2
13 -13 -4 -15 0 -19 14 -16 21 4 35 -10 19 -20 -5 -3 -10 -11 -10 -18 0 -8 3
-8 12 1 7 7 17 12 23 12 5 0 3 -5 -5 -10 -10 -6 -11 -10 -2 -10 6 0 12 -5 12
-11 0 -5 -6 -7 -12 -3 -9 5 -8 2 1 -9 11 -14 16 -15 30 -5 14 12 14 10 -1 -13
-13 -20 -13 -26 -3 -26 8 0 12 4 9 8 -2 4 0 10 4 13 5 3 9 -6 8 -21 -1 -16 5
-28 14 -30 13 -4 13 -3 0 6 -8 6 -10 11 -4 11 18 0 23 -11 14 -35 -8 -20 -6
-22 23 -21 18 0 32 -4 32 -11 0 -6 3 -14 7 -18 11 -11 -3 -36 -16 -28 -6 3 -3
-3 7 -15 12 -12 25 -18 35 -15 14 5 14 2 -3 -18 -11 -13 -13 -18 -5 -11 19 16
35 16 21 -1 -14 -17 -2 -30 14 -17 9 8 11 4 7 -16 -4 -23 -2 -25 17 -19 13 4
21 2 21 -5 0 -6 -4 -8 -10 -5 -5 3 -10 -1 -10 -9 0 -9 8 -16 18 -17 14 0 14
-2 -3 -9 -11 -5 -14 -9 -7 -9 7 -1 11 -5 7 -10 -3 -5 0 -13 6 -17 7 -4 9 -3 5
4 -3 6 -3 13 2 16 4 2 9 -7 10 -20 1 -17 -2 -23 -10 -18 -7 5 -8 3 -3 -6 6
-10 11 -9 22 6 11 14 14 15 13 4 -4 -30 0 -51 9 -46 5 3 12 -1 15 -10 4 -10 2
-13 -6 -8 -7 4 -8 3 -4 -4 4 -6 2 -22 -4 -34 l-11 -23 18 22 c16 20 19 20 33
5 13 -14 12 -15 -3 -9 -9 3 -17 2 -17 -3 0 -6 9 -10 20 -10 11 0 20 -5 20 -11
0 -5 -4 -8 -9 -4 -5 3 -13 0 -17 -6 -4 -8 -3 -9 4 -5 7 4 12 2 12 -5 0 -8 5
-7 17 2 14 12 16 12 8 0 -6 -10 -4 -13 6 -9 20 8 59 -9 55 -24 -1 -7 -1 -10 1
-5 3 4 9 4 15 1 6 -4 6 1 -1 13 -9 17 -7 20 10 19 11 0 24 -8 29 -16 9 -13 10
-13 10 0 0 12 2 12 9 2 4 -8 11 -13 15 -13 23 3 29 -1 14 -10 -10 -5 -15 -16
-11 -24 3 -9 -1 -23 -8 -33 -12 -15 -11 -15 8 1 16 14 23 15 29 6 4 -7 3 -10
-3 -6 -6 4 -14 0 -17 -9 -5 -12 -1 -14 17 -10 12 3 16 3 9 0 -9 -4 -10 -9 -2
-19 7 -9 8 -15 1 -19 -6 -4 -8 -14 -5 -24 5 -13 4 -14 -4 -4 -7 11 -10 11 -15
-3 -4 -9 -3 -13 3 -10 6 3 10 1 10 -5 0 -6 4 -9 8 -6 5 3 9 -1 9 -8 0 -8 -6
-12 -13 -9 -6 2 -15 -1 -20 -8 -4 -7 -3 -10 3 -6 12 8 39 -20 29 -30 -3 -3 -6
-1 -6 5 0 17 -17 15 -24 -4 -3 -8 -2 -13 3 -10 5 3 11 -1 15 -9 6 -17 -9 -28
-44 -31 -14 -1 -19 0 -12 3 6 2 12 8 12 12 0 4 -6 8 -12 8 -7 0 -21 4 -31 8
-14 6 -16 4 -11 -11 4 -11 3 -16 -1 -11 -5 4 -9 17 -10 30 -1 17 -8 22 -33 23
-50 2 -54 3 -47 15 4 6 -2 5 -14 -3 -12 -7 -21 -17 -21 -23 0 -5 -5 -3 -10 5
-13 20 -12 39 1 20 9 -13 10 -13 6 0 -2 8 -12 13 -22 12 -17 -3 -17 -2 -4 15
13 16 13 17 -3 4 -10 -7 -15 -18 -11 -25 4 -6 8 -17 9 -24 2 -10 -1 -10 -11
-2 -8 7 -14 15 -13 18 2 21 -4 23 -18 6 -15 -18 -15 -18 -5 3 6 12 16 24 23
27 7 3 2 3 -11 0 -17 -5 -21 -3 -16 6 5 9 4 11 -3 6 -7 -4 -12 -15 -12 -24 0
-15 -2 -15 -10 -2 -5 8 -10 11 -10 6 0 -5 -6 -3 -13 3 -8 6 -17 8 -20 5 -10
-11 -39 25 -31 38 5 8 1 8 -10 -1 -17 -14 -17 -15 0 -28 10 -7 13 -13 7 -13
-7 0 -18 7 -26 15 -8 8 -18 11 -22 7 -5 -4 -5 -1 -1 6 4 7 12 9 18 6 6 -4 8
-2 4 4 -3 5 0 13 6 15 7 3 -4 3 -25 1 -29 -3 -36 -1 -31 8 4 7 4 10 -1 6 -4
-4 -15 -2 -24 5 -14 11 -14 10 -2 -5 7 -10 10 -18 5 -18 -14 0 -31 14 -37 30
-4 12 -6 11 -6 -2 -1 -19 -18 -23 -39 -9 -11 7 -10 9 3 14 9 4 13 3 10 -3 -3
-6 -1 -10 4 -10 13 0 14 10 1 30 -6 10 -10 11 -10 3 0 -7 -5 -13 -11 -13 -5 0
-8 4 -5 8 3 5 -1 9 -9 9 -8 0 -12 -4 -9 -8 2 -4 -1 -11 -7 -15 -8 -4 -9 -3 -5
4 4 7 2 12 -4 12 -6 0 -9 4 -6 8 3 5 -1 9 -9 9 -8 0 -12 -4 -9 -9 9 -14 -6 -9
-23 7 -14 14 -18 14 -39 0 -18 -11 -23 -12 -22 -3 2 7 -3 12 -10 10 -8 -1 -11
2 -7 8 3 6 11 8 16 5 5 -3 6 1 3 9 -5 14 -8 14 -21 0 -9 -8 -18 -12 -21 -9 -4
3 0 10 8 15 8 5 12 11 9 15 -3 3 -18 -4 -33 -16 -17 -13 -26 -16 -24 -7 2 7
-5 12 -16 11 -13 -1 -15 2 -7 10 7 7 14 7 24 -1 10 -9 14 -9 14 1 0 8 -18 12
-53 13 -35 0 -51 -3 -47 -10 3 -6 2 -7 -2 -3 -14 12 -14 36 -2 33 7 -2 9 -1 4
1 -4 3 -5 10 -1 16 3 7 -5 1 -17 -13 -17 -19 -21 -20 -16 -6 6 14 3 17 -8 12
-8 -3 -15 0 -15 6 0 7 -4 7 -14 -1 -10 -8 -16 -9 -21 -1 -3 6 -11 7 -17 4 -6
-4 -8 -2 -4 4 3 6 2 13 -3 16 -5 4 -12 2 -16 -4 -3 -5 -11 -10 -18 -10 -6 0
-2 6 9 14 11 9 23 11 30 5 7 -5 11 -4 11 5 0 14 -26 14 -50 0 -8 -5 -7 -2 2 9
8 10 11 20 7 24 -3 3 -6 2 -6 -4 0 -6 -16 -13 -35 -15 -27 -3 -32 -1 -23 9 10
13 -1 18 -26 14 -5 -1 -6 5 -2 14 3 9 2 13 -4 10 -6 -3 -10 0 -11 7 0 10 -2
10 -6 1 -2 -7 -9 -13 -14 -13 -6 0 -7 5 -4 10 3 6 1 10 -4 10 -6 0 -11 -6 -11
-12 0 -9 -3 -10 -8 -2 -4 6 -14 14 -22 18 -8 3 -5 4 7 2 13 -2 25 -1 27 3 3 4
-3 8 -12 9 -39 4 -53 9 -65 22 -10 12 -9 12 6 1 9 -8 17 -9 17 -3 0 16 -26 22
-40 9 -10 -9 -11 -7 -5 13 5 19 4 21 -4 10 -10 -13 -11 -13 -11 0 0 12 -2 12
-9 2 -7 -11 -9 -10 -15 3 -3 9 -10 14 -15 11 -5 -3 -13 0 -19 7 -12 15 -12 47
0 47 5 0 6 5 2 12 -4 7 -3 8 5 4 6 -4 9 -12 6 -17 -4 -5 1 -9 10 -9 11 0 15 5
11 16 -3 8 -2 12 4 9 6 -3 10 0 10 7 1 7 7 2 15 -12 l14 -25 2 25 c1 17 3 20
6 7 2 -9 9 -15 14 -11 5 3 7 11 3 17 -3 7 2 3 10 -7 18 -22 21 -14 6 14 -7 14
-6 17 8 16 10 0 16 5 14 13 -3 12 -1 12 14 0 16 -13 17 -12 10 5 -7 20 -7 20
15 0 12 -10 19 -13 14 -5 -6 11 -4 13 10 7 18 -7 18 -6 0 16 -11 13 -13 17 -5
11 19 -17 37 -16 43 1 4 10 1 13 -9 9 -7 -3 -14 1 -14 8 0 7 3 9 7 6 3 -4 12
-2 20 4 7 6 13 8 13 5 0 -4 9 -2 20 4 11 6 17 16 14 25 -5 11 -2 13 10 9 11
-4 16 -1 16 11 0 15 3 15 15 5 13 -11 14 -10 10 2 -4 9 3 19 17 27 13 6 15 9
6 6 -33 -9 -43 -12 -35 -8 4 3 5 9 2 14 -4 5 2 6 11 2 10 -4 15 -2 11 3 -3 6
-1 16 5 24 8 12 9 12 4 -2 -3 -10 -3 -18 0 -18 8 0 59 63 59 73 0 6 9 13 20
18 11 4 14 8 7 8 -7 1 -10 6 -7 11 4 6 10 8 15 5 5 -3 12 0 16 6 4 8 3 9 -4 5
-17 -10 -15 3 3 21 8 8 13 19 10 24 -4 5 0 6 8 3 8 -3 18 0 23 7 4 7 3 10 -4
5 -6 -4 -10 1 -9 13 1 15 4 17 14 9 8 -6 16 -8 20 -4 3 3 2 6 -4 6 -6 0 -13 7
-17 15 -4 13 -2 13 14 5 20 -11 39 3 20 15 -5 3 -10 11 -10 17 0 7 5 6 14 -1
11 -9 16 -9 22 0 4 7 3 9 -3 6 -6 -4 -13 2 -16 14 -5 17 -3 18 11 7 13 -11 15
-11 9 4 -4 11 -2 17 6 15 7 -1 11 4 9 11 -3 15 38 13 51 -3 5 -6 7 -4 5 4 -2
8 -12 15 -22 17 -10 1 -21 6 -24 10 -4 4 0 5 9 2 9 -4 22 -2 30 3 8 5 14 9 15
9 0 0 0 -19 0 -43z m-206 -22 c0 -5 -5 -3 -10 5 -5 8 -10 20 -10 25 0 6 5 3
10 -5 5 -8 10 -19 10 -25z m3270 -169 c0 -2 -7 -7 -16 -10 -8 -3 -12 -2 -9 4
6 10 25 14 25 6z m-3420 -22 c0 -8 -19 -13 -24 -6 -3 5 1 9 9 9 8 0 15 -2 15
-3z m3260 -4 c0 -5 -5 -10 -11 -10 -5 0 -7 5 -4 10 3 6 8 10 11 10 2 0 4 -4 4
-10z m420 0 c0 -5 -5 -10 -11 -10 -5 0 -7 5 -4 10 3 6 8 10 11 10 2 0 4 -4 4
-10z m-3577 -52 c-9 -10 -19 -16 -22 -12 -3 3 2 10 11 15 10 6 15 16 12 27 -5
14 -4 15 5 2 7 -11 6 -19 -6 -32z m3672 22 c10 -11 14 -20 9 -20 -5 0 -15 9
-22 20 -7 11 -11 20 -9 20 2 0 12 -9 22 -20z m-2839 -41 c3 -22 5 -23 15 -9 9
13 10 13 6 -2 -3 -9 -1 -19 6 -22 9 -3 9 -5 0 -5 -17 -1 -54 40 -47 51 6 10
18 2 20 -13z m1884 -29 c0 -5 -2 -10 -4 -10 -3 0 -8 5 -11 10 -3 6 -1 10 4 10
6 0 11 -4 11 -10z m756 -15 c13 -8 24 -18 24 -21 0 -4 -8 0 -17 7 -17 13 -17
12 -4 -4 14 -18 16 -18 27 -2 12 16 13 16 11 -4 -1 -11 -6 -21 -11 -21 -5 0
-6 -3 -3 -6 4 -4 14 -1 24 7 15 12 16 12 10 -3 -3 -10 -2 -18 4 -18 6 0 8 -4
5 -9 -4 -5 3 -7 14 -4 11 3 20 0 20 -6 0 -6 -6 -11 -13 -11 -9 0 -13 -11 -12
-32 2 -27 0 -29 -11 -14 -7 10 -10 25 -7 34 5 10 3 13 -6 7 -7 -4 -11 -18 -8
-31 2 -15 0 -21 -6 -17 -6 4 -25 7 -43 8 -26 0 -31 -2 -22 -12 8 -11 7 -12 -8
-6 -10 3 -23 11 -27 17 -5 6 -6 2 -2 -10 4 -17 1 -21 -17 -20 -13 1 -22 7 -20
15 1 7 -2 10 -8 6 -6 -3 -8 -10 -5 -14 2 -5 -2 -17 -11 -27 -14 -18 -15 -18
-5 3 7 14 8 24 1 28 -5 3 -10 0 -10 -8 0 -22 -26 -41 -36 -26 -5 8 -3 9 6 4 9
-6 11 -4 5 5 -5 9 -4 11 3 6 8 -5 10 -2 6 9 -6 14 -8 14 -19 -2 -7 -9 -11 -23
-8 -30 3 -7 0 -13 -6 -13 -10 0 -15 14 -12 33 0 4 -4 7 -10 7 -6 0 -8 -9 -4
-20 4 -11 2 -21 -4 -21 -38 -5 -52 -7 -56 -9 -3 -1 -11 -3 -17 -4 -7 -1 -12
-10 -11 -20 1 -12 -2 -15 -9 -8 -7 7 -6 18 3 33 12 24 12 24 -10 5 -16 -14
-21 -16 -21 -5 0 9 -3 10 -8 3 -4 -6 -15 -10 -24 -9 -10 2 -17 0 -17 -3 5 -33
-35 -51 -51 -24 -6 11 -9 12 -10 4 0 -7 -6 -10 -12 -7 -7 4 -5 0 4 -7 15 -13
15 -15 -5 -28 -21 -12 -21 -12 -7 5 14 17 13 18 -2 12 -12 -4 -15 -2 -11 9 3
7 0 14 -6 14 -9 0 -15 -25 -13 -50 1 -13 -54 -5 -66 9 -9 11 -11 11 -6 2 5
-11 3 -13 -9 -8 -9 3 -19 1 -23 -4 -3 -6 -15 -9 -25 -6 -10 3 -18 2 -17 -2 2
-12 -14 -41 -24 -41 -5 0 -6 5 -3 10 4 6 -5 10 -24 8 -16 -1 -27 -6 -24 -11 3
-4 12 -6 20 -2 14 5 14 3 2 -11 -9 -11 -15 -12 -17 -5 -3 9 -11 7 -28 -4 -20
-13 -23 -13 -18 0 4 8 10 15 15 15 5 0 9 5 9 12 0 6 -14 -1 -31 -18 -30 -28
-31 -28 -19 -4 13 25 13 25 -8 6 -12 -10 -19 -23 -15 -29 3 -5 1 -7 -4 -4 -6
4 -16 0 -23 -8 -9 -11 -16 -12 -25 -5 -10 8 -15 8 -20 -1 -6 -8 -10 -8 -16 2
-7 12 -10 12 -21 0 -11 -11 -11 -13 1 -6 10 6 12 4 6 -5 -6 -10 -11 -9 -22 5
-7 11 -13 14 -13 7 0 -6 -9 -9 -20 -7 -12 2 -18 0 -15 -6 4 -5 10 -7 15 -4 5
3 11 2 14 -3 7 -11 -51 -8 -61 3 -5 4 -2 5 4 1 9 -5 11 -2 6 10 -5 14 -7 15
-15 1 -5 -10 -16 -14 -26 -11 -14 5 -14 4 -2 -4 8 -6 18 -8 22 -6 4 3 5 -2 1
-11 -5 -13 -7 -14 -14 -3 -5 7 -9 9 -9 4 0 -5 -7 -3 -16 4 -8 8 -14 9 -13 4 4
-22 -2 -44 -12 -44 -6 0 -8 9 -4 23 4 15 4 18 -3 8 -6 -8 -15 -10 -23 -5 -10
6 -10 3 1 -11 9 -11 10 -16 3 -11 -8 4 -13 2 -13 -6 0 -10 -2 -10 -9 1 -7 11
-11 10 -20 -5 -10 -17 -11 -15 -7 9 4 23 2 26 -8 18 -7 -6 -16 -7 -20 -3 -4 4
-7 3 -6 -3 1 -5 2 -17 1 -25 -1 -12 -5 -11 -16 4 -18 23 -20 14 -4 -17 7 -12
8 -19 4 -14 -5 4 -17 0 -27 -10 -10 -9 -18 -13 -18 -8 0 4 7 13 17 20 13 9 13
14 3 20 -9 5 -11 4 -6 -3 4 -7 2 -12 -4 -12 -7 0 -20 -10 -31 -22 -10 -13 -18
-18 -19 -11 0 6 6 13 13 16 9 3 8 8 -3 18 -8 8 -11 10 -7 5 4 -5 -2 -16 -13
-23 -11 -8 -18 -19 -14 -24 3 -6 -3 -5 -14 2 -12 7 -18 18 -14 24 3 5 -2 3
-12 -5 -17 -13 -17 -14 1 -22 12 -6 9 -7 -10 -3 -18 4 -26 2 -22 -4 4 -7 0 -8
-10 -5 -9 4 -22 -1 -31 -12 -10 -14 -12 -14 -9 -3 4 9 0 16 -9 16 -8 0 -12 -6
-9 -13 2 -6 -1 -15 -8 -20 -7 -4 -10 -3 -6 3 4 6 0 14 -9 17 -12 4 -15 2 -10
-9 3 -8 2 -14 -2 -14 -24 4 -42 -2 -36 -13 4 -7 3 -8 -4 -4 -7 4 -12 1 -12 -6
0 -9 -3 -9 -10 2 -5 8 -10 11 -10 6 0 -5 -6 -3 -14 3 -11 9 -16 9 -22 0 -5 -8
-3 -9 6 -4 9 5 11 4 6 -3 -4 -7 -14 -12 -22 -12 -9 0 -12 -5 -8 -12 4 -7 3 -8
-5 -4 -9 6 -9 11 -1 21 8 10 8 15 -1 21 -8 5 -9 3 -5 -5 5 -8 3 -11 -7 -9 -9
2 -22 -6 -30 -16 -11 -15 -16 -16 -22 -6 -5 9 -4 11 3 6 7 -4 12 -2 12 3 0 12
-27 10 -47 -2 -8 -5 -13 -3 -14 5 0 10 -2 11 -6 0 -3 -9 -9 -10 -17 -3 -8 6
-17 6 -26 -1 -12 -8 -12 -9 2 -4 10 3 22 -2 27 -12 8 -12 10 -13 11 -3 0 8 3
11 7 8 3 -4 12 -2 18 3 9 8 14 6 18 -4 4 -9 1 -18 -5 -22 -7 -4 -8 -3 -4 4 9
14 -3 15 -23 3 -9 -6 -22 -6 -34 0 -15 8 -18 7 -15 -7 2 -12 -4 -19 -17 -21
-18 -3 -18 -2 -2 5 18 8 18 9 1 22 -10 8 -15 10 -11 3 5 -7 -2 -15 -15 -19
-36 -12 -49 -13 -43 -3 4 5 -1 6 -9 3 -19 -7 -21 -20 -3 -27 9 -4 9 -6 -1 -6
-7 -1 -15 6 -18 14 -4 8 -10 15 -15 15 -6 0 -5 -10 2 -21 7 -13 7 -19 1 -15
-6 3 -14 2 -17 -4 -5 -8 -12 -7 -23 2 -13 11 -15 10 -9 -5 4 -11 3 -16 -3 -12
-6 3 -10 14 -11 23 0 12 -3 11 -9 -5 -10 -26 -20 -29 -38 -11 -8 8 -15 8 -24
1 -7 -6 -21 -11 -30 -12 -41 -3 -47 -5 -45 -15 1 -6 -4 -10 -10 -8 -7 1 -13
-2 -13 -8 0 -5 -4 -10 -10 -10 -5 0 -7 6 -4 14 3 8 1 17 -5 21 -7 4 -8 0 -5
-10 4 -9 3 -15 -2 -14 -5 1 -12 0 -16 -1 -16 -5 -28 -8 -44 -9 -8 0 -12 -5 -9
-11 3 -5 1 -10 -4 -10 -6 0 -11 5 -11 11 0 16 -41 0 -60 -24 -14 -16 -17 -17
-17 -4 0 9 4 14 9 11 4 -3 8 0 8 5 0 17 -18 13 -29 -6 -9 -15 -10 -15 -11 -3
0 9 5 21 12 28 9 9 9 15 1 23 -6 6 -9 17 -7 24 3 7 1 16 -5 20 -6 3 -11 11
-11 16 0 6 4 7 10 4 6 -4 7 1 3 12 -6 16 -5 17 12 3 17 -14 18 -14 7 7 -9 16
-9 24 0 29 6 4 8 3 5 -3 -4 -6 0 -14 9 -17 8 -3 13 -2 10 2 -2 4 0 14 6 22 8
12 9 12 4 -2 -3 -11 2 -21 13 -27 13 -7 18 -6 18 4 0 8 -5 11 -10 8 -6 -3 -7
-1 -3 6 4 6 11 9 16 6 5 -3 12 -1 15 5 5 8 12 7 23 -2 13 -11 15 -11 10 3 -4
9 -1 16 8 16 7 0 11 -4 9 -7 -3 -4 7 -7 20 -7 14 0 28 3 31 8 3 5 -1 6 -9 3
-19 -7 -32 12 -16 22 8 4 9 3 5 -4 -4 -7 -2 -12 3 -12 6 0 11 6 11 13 1 6 7 1
15 -13 8 -14 14 -20 15 -14 0 7 11 15 25 18 14 4 25 11 25 17 0 8 -5 7 -16 -1
-12 -11 -18 -10 -32 5 -16 18 -16 18 0 6 10 -7 23 -9 30 -5 7 5 22 10 33 11
10 2 23 9 28 16 5 7 6 4 2 -10 -3 -12 -1 -24 4 -28 7 -4 8 1 4 11 -4 12 -3 15
5 10 8 -5 10 -2 6 8 -3 9 -1 16 5 16 6 0 11 -4 11 -9 0 -6 9 -9 20 -8 13 1 19
6 15 15 -2 7 -1 11 4 8 5 -3 21 6 35 21 21 21 25 23 21 7 -6 -19 -6 -19 9 0
14 17 16 18 16 3 0 -9 -4 -17 -10 -17 -5 0 -10 -5 -10 -12 0 -6 7 -4 18 5 10
10 22 14 26 10 4 -4 4 1 0 12 -7 18 -6 18 9 6 16 -12 17 -12 10 5 -6 17 -5 17
10 5 21 -17 47 1 47 33 0 17 2 18 9 6 6 -8 8 -17 6 -20 -2 -4 2 -7 10 -7 11 0
12 4 4 14 -9 9 -8 13 0 13 7 0 10 4 7 9 -4 5 10 5 31 0 21 -4 39 -6 42 -3 2 2
-1 4 -8 4 -7 0 -9 5 -6 10 3 6 -1 10 -9 10 -8 0 -18 4 -21 10 -4 7 3 7 20 0
20 -8 27 -7 32 5 5 14 7 13 18 -1 9 -14 14 -14 20 -4 6 9 4 11 -6 5 -12 -7
-12 -6 -1 6 7 8 23 14 35 14 12 1 21 6 20 13 -2 7 2 12 7 12 13 0 13 -6 -1
-33 -9 -20 -9 -21 5 -4 14 18 15 18 26 0 10 -15 11 -16 6 -1 -6 19 3 27 35 33
12 2 28 12 35 22 13 17 14 17 7 -1 -4 -13 -3 -17 5 -12 7 4 12 2 12 -6 0 -9 3
-10 8 -2 4 6 14 10 23 9 9 -2 16 3 16 9 0 7 -6 13 -13 13 -7 0 -11 -3 -9 -7 2
-4 -2 -7 -10 -7 -8 0 -15 4 -15 9 0 9 12 11 48 10 21 -1 22 1 10 16 -12 15
-11 16 5 3 14 -11 15 -17 5 -30 -7 -9 -8 -13 -4 -9 5 4 15 3 22 -3 10 -8 12
-6 9 10 -2 12 -7 27 -11 34 -6 9 -5 9 8 0 8 -7 18 -10 22 -6 4 4 4 -1 1 -12
-6 -18 -5 -18 5 -2 6 9 8 23 4 30 -5 8 -2 7 9 -2 9 -7 17 -10 17 -5 0 4 7 -1
15 -12 15 -18 15 -18 8 0 -4 14 -3 17 6 12 6 -4 11 -4 10 1 -4 24 3 25 17 3 8
-14 13 -17 10 -7 -4 14 -1 16 19 13 14 -3 23 -1 20 5 -4 5 1 9 9 9 9 0 16 -6
17 -12 0 -7 5 -3 11 9 8 17 17 22 35 19 13 -3 21 -1 18 5 -4 5 -10 7 -15 4 -5
-3 -11 -2 -14 3 -2 4 6 8 20 8 13 0 24 -4 24 -9 0 -5 7 -1 16 7 12 13 20 14
36 5 18 -10 20 -9 15 5 -3 8 -1 18 5 22 7 4 8 3 4 -4 -9 -14 32 -10 42 4 4 5
16 10 27 12 16 2 17 1 5 -7 -12 -8 -10 -10 8 -8 17 1 21 6 16 22 -3 11 -2 16
3 10 4 -5 17 -17 28 -25 16 -11 17 -11 8 0 -17 18 -16 27 2 27 8 0 12 -3 10
-7 -2 -4 3 -7 11 -7 9 0 20 11 25 24 5 13 11 23 13 23 3 0 3 -7 -1 -16 -5 -14
-3 -15 15 -5 12 7 22 14 22 17 0 3 -5 2 -12 -2 -7 -4 -8 -3 -4 5 4 6 11 9 16
6 5 -3 11 -1 15 5 4 6 11 8 16 5 17 -11 50 -14 44 -4 -4 5 -11 6 -17 3 -7 -4
-8 -2 -4 5 4 6 11 9 16 6 5 -3 18 4 28 16 17 17 24 19 41 10 19 -11 25 -8 22
11 -1 7 33 3 48 -7 5 -3 12 -1 16 5 3 5 11 10 17 10 6 0 5 -7 -3 -17 -12 -16
-12 -17 2 -6 9 7 20 9 24 5 5 -4 6 0 2 9 -4 13 -1 16 14 12 10 -3 16 -10 12
-16 -3 -6 -1 -7 6 -3 6 4 9 13 5 19 -3 7 1 4 9 -6 13 -16 15 -16 21 -1 5 14 9
14 24 3 15 -12 15 -11 -1 7 -15 16 -19 17 -28 4 -9 -13 -10 -13 -6 0 3 10 14
14 31 12 14 -1 26 2 26 8 0 6 -4 9 -9 5 -5 -3 -12 -1 -15 4 -8 12 23 8 32 -5
4 -5 13 -10 21 -12 12 -3 12 -1 0 14 -10 13 -10 16 -1 10 7 -4 20 -2 30 6 15
12 16 11 4 -4 -11 -14 -11 -16 6 -11 11 2 23 0 27 -7 8 -12 42 28 37 43 -1 5
2 6 8 2 6 -3 8 -10 6 -14 -3 -4 -1 -13 3 -20 6 -9 10 -5 15 13 4 15 11 24 16
21 5 -3 13 3 19 12 6 10 11 12 11 6 0 -7 7 -13 16 -13 8 0 13 4 10 9 -4 5 2 8
11 7 10 -2 28 0 40 5 16 6 27 4 38 -7 10 -10 15 -11 15 -3 0 8 5 8 18 -2 15
-13 16 -12 3 3 -7 10 -17 16 -21 13 -5 -3 -11 -1 -15 4 -8 14 33 5 61 -14z
m299 -14 c3 -5 2 -12 -3 -15 -5 -3 -9 1 -9 9 0 17 3 19 12 6z m-3252 -16 c-3
-9 -8 -14 -10 -11 -3 3 -2 9 2 15 9 16 15 13 8 -4z m2674 -10 c0 -8 -4 -15 -9
-15 -10 0 -11 14 -1 23 9 10 10 9 10 -8z m-3743 -73 c2 -4 -5 -9 -17 -9 -17
-2 -19 0 -7 7 18 12 18 12 24 2z m1126 -8 c0 -8 -5 -12 -10 -9 -6 4 -8 11 -5
16 9 14 15 11 15 -7z m-1164 -36 c4 -7 4 -10 -1 -6 -4 4 -15 2 -24 -5 -14 -11
-14 -10 -2 6 16 20 18 21 27 5z m4084 -2 c0 -3 -4 -8 -10 -11 -5 -3 -10 -1
-10 4 0 6 5 11 10 11 6 0 10 -2 10 -4z m295 -5 c3 -5 2 -12 -3 -15 -5 -3 -9 1
-9 9 0 17 3 19 12 6z m-31 -50 c3 -5 0 -14 -7 -20 -10 -8 -19 -7 -33 5 -18 14
-18 15 3 5 13 -7 24 -7 27 -2 4 5 0 12 -6 14 -9 4 -10 6 -1 6 6 1 14 -3 17 -8z
m-1889 -20 c-3 -11 0 -10 10 3 16 21 21 11 6 -12 -6 -11 -14 -10 -39 6 l-32
19 31 0 c23 0 29 -4 24 -16z m77 -7 c9 -18 9 -18 -6 -1 -14 18 -15 18 -25 -1
-6 -11 -7 -23 -3 -27 4 -5 1 -5 -6 -1 -8 5 -9 13 -2 25 5 10 7 21 4 24 -3 3 2
4 11 3 10 -1 22 -11 27 -22z m28 22 c0 -3 -4 -8 -10 -11 -5 -3 -10 -1 -10 4 0
6 5 11 10 11 6 0 10 -2 10 -4z m-185 -16 c-3 -5 -1 -10 6 -10 7 0 10 -3 6 -6
-9 -9 -28 6 -22 17 4 5 8 9 11 9 3 0 2 -4 -1 -10z m75 -37 c0 -2 -9 1 -19 7
-14 7 -21 6 -24 -3 -3 -6 -5 -2 -4 9 1 20 3 21 24 7 13 -9 23 -17 23 -20z
m140 32 c0 -2 -6 -8 -13 -14 -10 -8 -14 -7 -14 2 0 8 6 14 14 14 7 0 13 -1 13
-2z m1134 -12 c4 -11 1 -11 -14 -3 -15 8 -20 8 -20 -1 0 -7 -3 -10 -6 -6 -9 9
3 24 20 24 8 0 17 -6 20 -14z m539 9 c2 7 7 10 11 7 4 -3 0 -11 -7 -18 -11 -9
-17 -7 -28 6 -13 16 -12 17 3 5 13 -10 17 -10 21 0z m-1930 -15 c4 3 7 1 7 -6
0 -7 -6 -11 -14 -8 -10 4 -12 0 -9 -14 5 -16 7 -17 17 -6 13 17 42 28 50 20
12 -12 -15 -42 -34 -38 -11 2 -26 -3 -34 -11 -13 -13 -15 -11 -11 15 3 23 0
28 -12 24 -12 -5 -12 -8 -1 -15 10 -7 9 -8 -4 -4 -20 6 -23 -4 -8 -22 7 -9 7
-9 -2 -2 -16 13 -38 13 -38 -1 0 -5 4 -8 9 -4 6 3 15 -5 21 -17 10 -21 10 -21
-3 -5 -14 16 -15 16 -21 1 -5 -13 -9 -15 -18 -6 -15 15 -29 15 -25 1 1 -6 -10
-13 -25 -16 -16 -2 -28 0 -28 5 0 5 11 8 25 7 14 -2 23 0 20 5 -6 10 -54 10
-61 -1 -2 -5 3 -21 12 -36 l16 -28 -22 25 c-21 24 -22 24 -17 3 5 -21 4 -21
-20 -6 -13 9 -23 12 -22 7 3 -19 -1 -34 -11 -34 -5 0 -6 8 -3 18 6 15 5 16
-12 2 -17 -14 -18 -13 -12 5 7 19 7 19 -7 1 -14 -18 -15 -18 -13 2 0 11 6 20
12 19 5 -1 9 4 8 11 -2 6 2 12 8 12 6 0 9 -7 5 -15 -3 -8 -1 -15 4 -15 6 0 10
8 11 18 0 10 3 12 6 5 9 -25 39 -13 62 25 12 20 20 29 17 19 -4 -12 -2 -17 6
-14 7 2 12 10 10 16 -1 7 2 10 8 6 6 -3 8 -11 5 -16 -4 -5 -2 -9 3 -9 17 0 22
13 9 29 -11 14 -10 14 6 2 14 -11 23 -12 43 -2 15 6 24 17 21 24 -3 9 3 13 17
13 13 -1 20 4 18 13 -2 11 0 12 11 3 8 -7 17 -9 20 -5z m587 -7 c0 -5 -2 -10
-4 -10 -3 0 -8 5 -11 10 -3 6 -1 10 4 10 6 0 11 -4 11 -10z m1147 -22 c-3 -8
-6 -5 -6 6 -1 11 2 17 5 13 3 -3 4 -12 1 -19z m-1212 -6 c-3 -3 -11 0 -18 7
-9 10 -8 11 6 5 10 -3 15 -9 12 -12z m-71 -10 c3 -5 -1 -9 -9 -9 -8 0 -15 4
-15 9 0 4 4 8 9 8 6 0 12 -4 15 -8z m-1324 -7 c0 -2 -6 -8 -13 -14 -10 -8 -14
-7 -14 2 0 8 6 14 14 14 7 0 13 -1 13 -2z m2007 -10 c0 -8 -4 -12 -9 -9 -5 3
-6 10 -3 15 9 13 12 11 12 -6z m-1943 -3 c3 -5 -1 -9 -9 -9 -8 0 -12 4 -9 9 3
4 7 8 9 8 2 0 6 -4 9 -8z m599 -7 c-3 -9 -8 -14 -10 -11 -3 3 -2 9 2 15 9 16
15 13 8 -4z m1638 -40 c-1 -3 -4 -5 -8 -6 -5 -1 -16 -5 -25 -10 -12 -6 -18 -6
-18 1 0 5 7 10 16 10 9 0 12 5 8 12 -4 7 -3 8 4 4 7 -4 12 -1 13 6 0 10 2 10
6 1 2 -7 4 -15 4 -18z m-1221 5 c0 -5 -2 -10 -4 -10 -3 0 -8 5 -11 10 -3 6 -1
10 4 10 6 0 11 -4 11 -10z m40 4 c0 -8 -19 -13 -24 -6 -3 5 1 9 9 9 8 0 15 -2
15 -3z m1114 -2 c3 -5 -1 -9 -9 -9 -8 0 -12 4 -9 9 3 4 7 8 9 8 2 0 6 -4 9 -8z
m-1718 -41 c-6 -9 22 -26 37 -22 5 1 6 -3 2 -9 -3 -6 -11 -7 -17 -4 -6 4 -21
8 -34 10 -16 1 -21 -2 -17 -13 5 -12 7 -12 14 -1 7 11 10 11 21 0 11 -11 10
-13 -2 -10 -9 2 -14 -3 -12 -11 2 -11 0 -12 -11 -3 -8 7 -18 8 -22 4 -5 -4 -5
-1 -1 5 5 9 2 11 -8 7 -9 -3 -14 -9 -11 -13 2 -4 -2 -8 -10 -8 -8 0 -13 5 -12
10 1 5 -8 10 -20 12 -12 1 -20 -2 -17 -7 3 -4 3 -8 0 -8 -2 0 -13 -3 -23 -7
-15 -6 -16 -5 -5 9 10 13 10 18 1 24 -8 5 -9 3 -4 -6 6 -9 4 -11 -5 -5 -8 5
-11 4 -7 -1 3 -6 -3 -10 -13 -11 -10 -1 -21 5 -24 14 -5 13 -4 14 9 3 14 -12
20 -7 15 15 -1 6 2 7 6 3 4 -4 13 0 21 10 12 16 13 16 7 0 -3 -10 -1 -18 5
-18 6 0 11 6 11 13 0 8 4 7 10 -3 9 -13 14 -7 11 12 0 4 6 5 15 1 13 -5 13 -7
2 -14 -9 -6 -6 -8 9 -6 12 0 19 5 17 9 -3 5 6 7 19 4 16 -3 27 1 31 10 3 8 8
14 11 14 4 0 4 -4 1 -9z m-1716 -64 c0 -5 -4 -5 -10 -2 -5 3 -10 14 -10 23 0
15 2 15 10 2 5 -8 10 -19 10 -23z m1526 -4 c14 2 27 0 30 -5 3 -5 12 -7 20 -4
7 3 16 1 19 -5 4 -5 3 -9 -2 -8 -20 3 -34 -2 -28 -11 10 -16 -18 -7 -32 10
-10 13 -12 12 -8 -7 2 -12 -3 -27 -10 -33 -12 -10 -13 -8 -10 10 3 18 0 21
-15 17 -11 -3 -25 1 -31 9 -17 21 -2 30 24 15 l22 -14 -20 23 c-11 13 -14 20
-7 16 7 -4 12 -2 13 6 1 7 3 5 6 -5 4 -14 11 -18 29 -14z m-76 2 c-10 -13 -10
-19 5 -35 10 -11 23 -17 29 -13 6 3 6 0 -1 -7 -10 -11 -16 -10 -31 8 -11 12
-22 18 -26 14 -11 -10 -3 20 9 35 6 7 14 12 19 13 5 0 3 -7 -4 -15z m173 -6
c-4 -15 -8 -17 -14 -8 -6 11 4 28 18 29 0 0 -1 -9 -4 -21z m-346 5 c-3 -3 -12
-4 -19 -1 -8 3 -5 6 6 6 11 1 17 -2 13 -5z m1346 -9 c-3 -9 -8 -14 -10 -11 -3
3 -2 9 2 15 9 16 15 13 8 -4z m-2529 -19 c3 2 4 1 1 -3 -10 -12 -44 -10 -49 3
-4 10 1 11 18 4 13 -5 27 -7 30 -4z m1911 4 c-3 -5 -12 -10 -18 -10 -7 0 -6 4
3 10 19 12 23 12 15 0z m-1585 -24 c0 -2 -7 -7 -16 -10 -8 -3 -12 -2 -9 4 6
10 25 14 25 6z m870 -2 c0 -8 -19 -13 -24 -6 -3 5 1 9 9 9 8 0 15 -2 15 -3z
m1602 -36 c-7 -7 -12 -8 -12 -2 0 14 12 26 19 19 2 -3 -1 -11 -7 -17z m-2298
-6 c3 -5 -1 -9 -9 -9 -8 0 -12 4 -9 9 3 4 7 8 9 8 2 0 6 -4 9 -8z m2166 4 c0
-3 -4 -8 -10 -11 -5 -3 -10 -1 -10 4 0 6 5 11 10 11 6 0 10 -2 10 -4z m-203
-89 c-5 -16 -34 -17 -34 -1 0 11 3 11 16 1 12 -10 14 -9 8 6 -4 11 -3 16 4 12
5 -4 8 -12 6 -18z m-156 -40 c-1 -12 -15 -9 -19 4 -3 6 1 10 8 8 6 -3 11 -8
11 -12z m-964 -42 c-4 -8 -2 -17 3 -20 15 -9 12 -25 -4 -25 -9 0 -13 11 -12
30 0 17 5 30 9 30 5 0 7 -7 4 -15z m-273 -7 c-3 -4 -9 -8 -15 -8 -5 0 -9 4 -9
8 0 5 7 9 15 9 8 0 12 -4 9 -9z m598 5 c-6 -2 -10 -8 -8 -12 3 -4 -1 -8 -9 -8
-11 0 -12 4 -4 14 6 7 17 13 23 12 7 0 6 -2 -2 -6z m-46 -15 c-1 -7 -5 -14
-10 -15 -5 -1 -13 -7 -17 -15 -7 -11 -9 -11 -9 1 0 8 8 20 18 27 21 17 21 17
18 2z m-912 -29 c-3 -5 -10 -7 -15 -3 -5 3 -7 10 -3 15 3 5 10 7 15 3 5 -3 7
-10 3 -15z m1336 13 c0 -5 -7 -9 -15 -9 -8 0 -12 4 -9 9 3 4 9 8 15 8 5 0 9
-4 9 -8z m-528 -24 c-7 -7 -12 -8 -12 -2 0 6 3 14 7 17 3 4 9 5 12 2 2 -3 -1
-11 -7 -17z m-87 -8 c-3 -5 -12 -10 -18 -10 -7 0 -6 4 3 10 19 12 23 12 15 0z
m-8 -26 c-3 -3 -12 -4 -19 -1 -8 3 -5 6 6 6 11 1 17 -2 13 -5z m-452 -28 c12
3 26 1 30 -5 3 -6 11 -8 17 -5 7 4 8 2 4 -5 -6 -9 -11 -9 -22 0 -7 6 -21 9
-29 5 -24 -9 -45 4 -37 22 6 16 7 15 10 -1 3 -12 10 -15 27 -11z m792 2 c-3
-8 -6 -5 -6 6 -1 11 2 17 5 13 3 -3 4 -12 1 -19z m-674 -32 c3 3 14 1 24 -5
14 -8 15 -11 3 -11 -9 0 -5 -6 10 -15 29 -16 19 -20 -11 -4 -11 5 -17 14 -14
20 4 5 2 9 -4 9 -5 0 -11 -6 -13 -12 -3 -8 -10 -3 -18 12 -12 22 -11 24 2 13
8 -7 17 -10 21 -7z"/>
<path d="M813 4048 c-2 -16 0 -19 6 -9 6 8 14 10 22 5 12 -6 12 -5 0 9 -18 23
-26 21 -28 -5z"/>
<path d="M869 4015 c-1 -3 -2 -8 -3 -12 -1 -5 -5 -15 -10 -23 -7 -12 -6 -13 4
-3 13 12 23 43 14 43 -2 0 -5 -2 -5 -5z"/>
<path d="M950 3861 c0 -6 5 -11 11 -11 5 0 7 -4 4 -10 -3 -5 -1 -10 4 -10 16
0 13 16 -4 30 -10 9 -15 9 -15 1z"/>
<path d="M716 3753 c-6 -14 -5 -15 5 -6 7 7 10 15 7 18 -3 3 -9 -2 -12 -12z"/>
<path d="M1084 3591 c0 -10 9 -17 23 -17 13 -1 23 -1 23 1 0 1 -10 9 -23 18
-20 13 -23 13 -23 -2z"/>
<path d="M867 3476 c-3 -8 -2 -18 3 -21 13 -8 20 9 11 24 -6 10 -10 9 -14 -3z"/>
<path d="M905 3421 c-6 -11 13 -26 22 -17 4 3 1 6 -6 6 -7 0 -9 5 -6 10 3 6 4
10 1 10 -3 0 -7 -4 -11 -9z"/>
<path d="M1266 3303 c-6 -14 -5 -15 5 -6 7 7 10 15 7 18 -3 3 -9 -2 -12 -12z"/>
<path d="M1318 3253 c6 -2 9 -10 6 -15 -4 -7 -2 -8 5 -4 13 9 5 26 -12 25 -9
0 -8 -2 1 -6z"/>
<path d="M1113 3225 c0 -8 4 -12 9 -9 5 3 6 10 3 15 -9 13 -12 11 -12 -6z"/>
<path d="M1226 3073 c-6 -14 -5 -15 5 -6 7 7 10 15 7 18 -3 3 -9 -2 -12 -12z"/>
<path d="M1520 2930 c8 -5 15 -15 16 -22 3 -41 4 -43 15 -25 8 14 7 23 -7 38
-9 10 -22 19 -28 19 -6 0 -4 -5 4 -10z"/>
<path d="M1461 2763 c-1 -17 16 -25 25 -12 4 7 3 9 -4 5 -5 -3 -13 0 -15 6 -4
9 -6 10 -6 1z"/>
<path d="M1500 2685 c14 -17 30 -20 30 -4 0 5 -4 7 -10 4 -5 -3 -10 -1 -10 4
0 6 -5 11 -11 11 -8 0 -8 -5 1 -15z"/>
<path d="M1610 2527 c0 -2 15 -16 32 -33 18 -16 25 -20 17 -9 -9 11 -14 27
-12 35 4 13 3 13 -6 0 -7 -10 -11 -11 -11 -2 0 6 -4 12 -10 12 -5 0 -10 -1
-10 -3z"/>
<path d="M1873 2285 c0 -8 4 -12 9 -9 5 3 6 10 3 15 -9 13 -12 11 -12 -6z"/>
<path d="M1467 2504 c-8 -8 3 -34 15 -34 7 0 6 5 -1 13 -6 8 -8 17 -4 20 3 4
4 7 1 7 -2 0 -7 -3 -11 -6z"/>
<path d="M674 2389 c-3 -6 -3 -13 0 -16 3 -4 6 -1 6 5 0 6 7 9 15 6 8 -4 15
-4 15 -1 0 11 -30 16 -36 6z"/>
<path d="M530 2321 c0 -6 4 -12 8 -15 5 -3 9 1 9 9 0 8 -4 15 -9 15 -4 0 -8
-4 -8 -9z"/>
<path d="M593 2315 c0 -8 4 -12 9 -9 5 3 6 10 3 15 -9 13 -12 11 -12 -6z"/>
<path d="M565 2300 c3 -5 8 -10 11 -10 2 0 4 5 4 10 0 6 -5 10 -11 10 -5 0 -7
-4 -4 -10z"/>
<path d="M895 2121 c-3 -5 -1 -12 5 -16 5 -3 10 1 10 9 0 18 -6 21 -15 7z"/>
<path d="M1017 2093 c-10 -9 -9 -23 1 -23 5 0 9 7 9 15 0 17 -1 18 -10 8z"/>
<path d="M1731 2074 c0 -11 3 -14 6 -6 3 7 2 16 -1 19 -3 4 -6 -2 -5 -13z"/>
<path d="M1750 2065 c0 -8 2 -15 4 -15 2 0 6 7 10 15 3 8 1 15 -4 15 -6 0 -10
-7 -10 -15z"/>
<path d="M1835 2050 c-3 -5 -1 -10 4 -10 6 0 11 5 11 10 0 6 -2 10 -4 10 -3 0
-8 -4 -11 -10z"/>
<path d="M1167 2031 c-4 -17 -3 -21 5 -13 5 5 8 16 6 23 -3 8 -7 3 -11 -10z"/>
<path d="M1876 1961 c-4 -5 -2 -12 3 -15 5 -4 12 -2 15 3 4 5 2 12 -3 15 -5 4
-12 2 -15 -3z"/>
<path d="M1507 1913 c3 -7 6 -13 8 -13 2 0 5 6 8 13 3 8 -1 14 -8 14 -7 0 -11
-6 -8 -14z"/>
<path d="M1536 1898 c3 -5 10 -6 15 -3 13 9 11 12 -6 12 -8 0 -12 -4 -9 -9z"/>
<path d="M1866 1798 c3 -5 10 -6 15 -3 13 9 11 12 -6 12 -8 0 -12 -4 -9 -9z"/>
<path d="M4315 2561 c-3 -5 -2 -12 3 -15 5 -3 9 1 9 9 0 17 -3 19 -12 6z"/>
<path d="M4217 2536 c-4 -10 1 -12 14 -9 23 6 24 9 5 16 -8 3 -17 0 -19 -7z"/>
<path d="M3742 2429 c-8 -12 -9 -18 -4 -15 6 3 13 0 16 -6 3 -7 4 -4 3 7 -1
12 3 19 11 17 8 -1 11 2 7 8 -9 15 -19 12 -33 -11z"/>
<path d="M4400 2440 c-9 -6 -10 -10 -3 -10 6 0 15 5 18 10 8 12 4 12 -15 0z"/>
<path d="M3656 2393 c-6 -14 -5 -15 5 -6 7 7 10 15 7 18 -3 3 -9 -2 -12 -12z"/>
<path d="M4123 2355 c0 -8 4 -12 9 -9 5 3 6 10 3 15 -9 13 -12 11 -12 -6z"/>
<path d="M3445 2321 c-3 -5 -2 -12 3 -15 5 -3 9 1 9 9 0 17 -3 19 -12 6z"/>
<path d="M3417 2313 c-4 -3 -7 -11 -7 -17 0 -6 5 -5 12 2 6 6 9 14 7 17 -3 3
-9 2 -12 -2z"/>
<path d="M3355 2299 c-4 -6 -4 -13 -1 -16 3 -4 6 -1 6 6 0 7 5 9 12 5 7 -4 8
-3 4 4 -9 15 -13 15 -21 1z"/>
<path d="M3867 2275 c-3 -7 0 -12 8 -11 22 3 27 13 11 19 -8 3 -17 0 -19 -8z"/>
<path d="M3275 2260 c-3 -5 -1 -10 4 -10 6 0 11 5 11 10 0 6 -2 10 -4 10 -3 0
-8 -4 -11 -10z"/>
<path d="M3735 2240 c3 -5 8 -10 11 -10 2 0 4 5 4 10 0 6 -5 10 -11 10 -5 0
-7 -4 -4 -10z"/>
<path d="M3541 2187 c12 -26 13 -26 31 -11 21 19 24 38 6 31 -7 -2 -12 -10
-10 -16 3 -17 -9 -13 -25 7 -12 15 -12 13 -2 -11z"/>
<path d="M3515 2180 c3 -5 8 -10 11 -10 2 0 4 5 4 10 0 6 -5 10 -11 10 -5 0
-7 -4 -4 -10z"/>
<path d="M2890 2159 c0 -5 5 -7 10 -4 6 3 10 8 10 11 0 2 -4 4 -10 4 -5 0 -10
-5 -10 -11z"/>
<path d="M2797 2143 c3 -7 6 -13 8 -13 2 0 5 6 8 13 3 8 -1 14 -8 14 -7 0 -11
-6 -8 -14z"/>
<path d="M2745 2131 c-6 -11 13 -26 22 -17 4 3 1 6 -6 6 -7 0 -9 5 -6 10 3 6
4 10 1 10 -3 0 -7 -4 -11 -9z"/>
<path d="M3073 2045 c0 -8 4 -12 9 -9 5 3 6 10 3 15 -9 13 -12 11 -12 -6z"/>
<path d="M3006 2038 c3 -5 10 -6 15 -3 13 9 11 12 -6 12 -8 0 -12 -4 -9 -9z"/>
<path d="M2490 2020 c0 -5 -5 -9 -11 -7 -6 1 -14 -5 -16 -13 -4 -12 -3 -12 5
-2 5 8 13 13 18 12 5 -1 10 3 12 9 2 6 1 11 -2 11 -3 0 -6 -4 -6 -10z"/>
<path d="M2888 2000 c-3 -9 -20 -16 -50 -19 -5 -1 -8 -5 -8 -10 0 -5 6 -8 14
-7 21 3 62 33 55 41 -4 3 -9 1 -11 -5z"/>
<path d="M2156 1921 c-3 -5 1 -12 10 -15 22 -8 25 -4 9 11 -8 7 -16 9 -19 4z"/>
<path d="M2456 1898 c3 -5 10 -6 15 -3 13 9 11 12 -6 12 -8 0 -12 -4 -9 -9z"/>
<path d="M2550 1899 c0 -5 5 -7 10 -4 6 3 10 8 10 11 0 2 -4 4 -10 4 -5 0 -10
-5 -10 -11z"/>
<path d="M2457 1865 c3 -8 9 -12 14 -9 12 7 11 11 -5 17 -10 4 -13 1 -9 -8z"/>
<path d="M2715 2279 c-4 -6 -5 -12 -2 -15 2 -3 7 2 10 11 7 17 1 20 -8 4z"/>
<path d="M2576 2227 c3 -10 9 -15 12 -12 3 3 0 11 -7 18 -10 9 -11 8 -5 -6z"/>
<path d="M2860 4801 c0 -6 4 -13 10 -16 6 -3 7 1 4 9 -7 18 -14 21 -14 7z"/>
<path d="M2540 4741 c0 -6 -8 -8 -18 -6 -11 2 -19 -3 -19 -11 0 -8 4 -10 11
-5 6 5 19 7 28 6 11 -2 15 2 11 11 -6 16 -13 18 -13 5z"/>
<path d="M2160 4691 c-7 -11 -17 -18 -21 -15 -4 2 -10 0 -13 -5 -5 -8 15 -8
34 -1 3 1 7 2 10 2 3 0 7 8 7 19 2 24 1 24 -17 0z"/>
<path d="M1755 4650 c3 -5 8 -10 11 -10 2 0 4 5 4 10 0 6 -5 10 -11 10 -5 0
-7 -4 -4 -10z"/>
<path d="M1830 4639 c0 -5 5 -7 10 -4 6 3 10 8 10 11 0 2 -4 4 -10 4 -5 0 -10
-5 -10 -11z"/>
<path d="M1597 4623 c-14 -13 -6 -23 15 -20 12 2 23 9 24 16 2 7 0 7 -3 1 -3
-8 -9 -8 -17 -1 -7 6 -16 8 -19 4z"/>
<path d="M1556 4611 c-4 -5 -2 -12 3 -15 5 -4 12 -2 15 3 4 5 2 12 -3 15 -5 4
-12 2 -15 -3z"/>
<path d="M540 3919 c0 -5 5 -7 10 -4 6 3 10 8 10 11 0 2 -4 4 -10 4 -5 0 -10
-5 -10 -11z"/>
<path d="M512 3901 c-11 -6 -9 -9 6 -13 15 -4 19 -2 15 8 -6 16 -4 16 -21 5z"/>
<path d="M4381 3659 c21 -29 39 -38 39 -18 0 5 -4 8 -9 4 -5 -3 -13 0 -17 6
-3 6 0 15 7 20 8 5 10 9 4 10 -5 0 -18 2 -28 4 -15 3 -15 0 4 -26z"/>
<path d="M580 3662 c0 -6 9 -12 20 -15 11 -3 20 -3 20 -1 0 2 -9 8 -20 14 -11
6 -20 7 -20 2z"/>
<path d="M660 3530 c12 -8 13 -12 2 -19 -11 -6 -10 -10 3 -15 24 -9 32 -7 15
4 -12 8 -12 10 -1 10 11 0 11 3 1 15 -7 8 -18 15 -24 15 -6 0 -4 -5 4 -10z"/>
<path d="M4547 3457 c-3 -8 1 -14 8 -14 7 0 11 6 8 14 -3 7 -6 13 -8 13 -2 0
-5 -6 -8 -13z"/>
<path d="M4575 3420 c3 -5 8 -10 11 -10 2 0 4 5 4 10 0 6 -5 10 -11 10 -5 0
-7 -4 -4 -10z"/>
<path d="M785 3309 c-4 -6 -5 -12 -2 -15 2 -3 7 2 10 11 7 17 1 20 -8 4z"/>
<path d="M4830 2979 c0 -5 5 -7 10 -4 6 3 10 8 10 11 0 2 -4 4 -10 4 -5 0 -10
-5 -10 -11z"/>
<path d="M4530 2784 c-7 -7 -16 -12 -20 -9 -4 3 -14 -3 -21 -13 -13 -15 -12
-16 4 -3 14 11 17 11 17 0 0 -12 2 -12 9 0 5 7 11 9 13 5 3 -5 3 -4 2 3 -4 17
13 26 19 11 4 -10 6 -10 6 -1 1 7 8 10 19 6 9 -3 14 -3 11 1 -13 14 -48 14
-59 0z"/>
<path d="M820 2756 c0 -2 7 -7 16 -10 8 -3 12 -2 9 4 -6 10 -25 14 -25 6z"/>
<path d="M4586 2702 c-3 -5 1 -9 9 -9 8 0 12 4 9 9 -3 4 -7 8 -9 8 -2 0 -6 -4
-9 -8z"/>
<path d="M4650 2626 c0 -2 7 -7 16 -10 8 -3 12 -2 9 4 -6 10 -25 14 -25 6z"/>
<path d="M601 2524 c0 -11 3 -14 6 -6 3 7 2 16 -1 19 -3 4 -6 -2 -5 -13z"/>
<path d="M362 2256 c7 -8 15 -12 17 -11 5 6 -10 25 -20 25 -5 0 -4 -6 3 -14z"/>
<path d="M4157 2203 c-10 -9 -9 -23 1 -23 5 0 9 7 9 15 0 17 -1 18 -10 8z"/>
<path d="M3925 2140 c-3 -5 -1 -10 4 -10 6 0 11 5 11 10 0 6 -2 10 -4 10 -3 0
-8 -4 -11 -10z"/>
<path d="M3747 2071 c-4 -17 -3 -21 5 -13 5 5 8 16 6 23 -3 8 -7 3 -11 -10z"/>
<path d="M3550 1999 c0 -5 5 -7 10 -4 6 3 10 8 10 11 0 2 -4 4 -10 4 -5 0 -10
-5 -10 -11z"/>
<path d="M3045 1881 c-3 -5 -2 -12 3 -15 5 -3 9 1 9 9 0 17 -3 19 -12 6z"/>
<path d="M2875 1831 c-3 -5 -1 -12 5 -16 5 -3 10 1 10 9 0 18 -6 21 -15 7z"/>
<path d="M1293 1812 c1 -14 5 -18 11 -12 14 14 24 12 29 -5 4 -11 4 -10 3 2
-1 10 -8 18 -16 18 -8 0 -18 4 -22 10 -4 5 -6 0 -5 -13z"/>
<path d="M1901 1604 c0 -11 3 -14 6 -6 3 7 2 16 -1 19 -3 4 -6 -2 -5 -13z"/>
<path d="M2102 1611 c-11 -7 -10 -9 3 -14 9 -4 14 -3 10 2 -3 5 1 12 7 14 7 3
9 6 3 6 -5 0 -16 -3 -23 -8z"/>
<path d="M487 1330 c-130 -40 -195 -142 -167 -264 22 -99 64 -131 274 -206
154 -55 197 -78 214 -115 27 -59 0 -130 -60 -161 -42 -22 -164 -30 -224 -15
-66 17 -99 43 -125 101 -12 28 -29 51 -36 51 -7 1 -19 2 -25 3 -68 11 -59 -96
15 -172 56 -59 131 -88 236 -91 156 -5 262 43 313 143 16 31 19 53 16 106 -6
119 -58 165 -273 241 -198 70 -226 90 -228 168 -2 75 52 117 162 125 112 8
188 -30 213 -106 13 -38 19 -43 47 -46 46 -5 64 13 56 57 -14 77 -95 159 -179
182 -67 19 -166 18 -229 -1z"/>
<path d="M2786 1334 c-13 -12 -16 -41 -16 -146 l0 -131 -23 21 c-55 52 -195
68 -275 32 -96 -43 -151 -144 -157 -285 -10 -220 81 -354 245 -363 72 -4 158
16 180 44 17 19 24 18 35 -9 6 -14 21 -23 38 -25 58 -7 57 -18 57 439 0 403
-1 419 -19 429 -27 14 -47 13 -65 -6z m-111 -321 c64 -35 95 -104 95 -211 0
-95 -20 -158 -63 -200 -76 -74 -225 -52 -265 38 -28 62 -35 173 -17 262 11 56
67 115 118 125 45 10 99 3 132 -14z"/>
<path d="M4355 1336 c-18 -13 -19 -34 -19 -424 0 -323 3 -414 13 -426 18 -22
68 -21 80 2 5 9 10 66 10 127 1 60 4 112 7 115 3 3 11 -2 17 -10 7 -8 48 -46
92 -85 44 -38 82 -72 85 -75 48 -51 107 -90 134 -90 66 0 74 42 17 91 -160
138 -290 256 -290 264 -1 6 67 61 149 123 93 70 150 120 150 131 0 26 -20 41
-55 41 -24 0 -62 -23 -166 -101 l-134 -100 -5 206 c-4 168 -8 207 -20 215 -21
14 -43 12 -65 -4z"/>
<path d="M1853 1114 c-69 -29 -123 -109 -123 -180 0 -32 25 -86 52 -111 27
-25 72 -43 193 -78 107 -31 131 -45 138 -81 12 -64 -47 -106 -150 -106 -67 0
-104 15 -147 61 -17 17 -38 31 -49 31 -105 0 -38 -130 90 -176 47 -16 149 -18
210 -2 92 23 161 121 147 208 -12 75 -57 115 -164 149 -36 11 -92 28 -124 38
-72 22 -100 53 -88 97 12 44 49 66 113 68 67 2 109 -14 137 -51 24 -32 48 -42
80 -30 53 20 5 109 -83 157 -40 21 -188 25 -232 6z"/>
<path d="M3202 1120 c-90 -22 -164 -113 -188 -230 -8 -38 -7 -160 1 -200 16
-79 71 -161 133 -197 42 -25 57 -28 137 -28 71 0 99 5 135 22 83 39 143 114
117 145 -24 31 -55 28 -99 -9 -60 -50 -95 -65 -149 -65 -80 1 -140 47 -168
131 -21 64 -31 61 197 61 159 0 213 3 227 14 16 11 17 23 12 88 -13 172 -109
274 -260 276 -34 0 -77 -3 -95 -8z m204 -138 c19 -19 38 -51 44 -71 19 -69 27
-66 -152 -64 -90 1 -169 2 -177 2 -18 1 -6 65 20 107 55 90 190 103 265 26z"/>
<path d="M3831 1113 c-66 -23 -126 -89 -147 -159 -17 -59 -23 -204 -11 -275
24 -148 130 -226 292 -216 115 6 177 42 219 124 18 35 24 83 12 101 -4 7 -20
12 -36 12 -29 0 -49 -19 -82 -78 -22 -42 -72 -65 -134 -64 -129 1 -184 83
-178 263 6 146 62 212 181 210 72 0 110 -24 148 -89 26 -46 34 -52 63 -52 53
0 60 47 18 128 -20 39 -69 77 -125 97 -55 19 -163 18 -220 -2z"/>
<path d="M1061 1111 c-12 -8 -15 -47 -14 -215 1 -255 12 -308 84 -377 74 -72
231 -80 321 -17 33 23 38 23 38 -1 0 -35 72 -44 90 -12 6 12 10 129 10 310 0
312 -1 321 -53 321 -49 0 -50 -5 -52 -221 -3 -229 -2 -221 -33 -272 -47 -80
-184 -95 -255 -29 -41 39 -47 78 -47 294 0 165 -2 199 -16 212 -17 18 -51 21
-73 7z"/>
</g>
</svg>
